<?xml version="1.0" standalone="yes"?>
<svg xmlns="http://www.w3.org/2000/svg" width="406" height="412">
<path style="fill:#ffffff; stroke:none;" d="M0 0L0 155L0 412L406 412L406 59L406 0L346 0L0 0z"/>
<path style="fill:#000000; stroke:none;" d="M8 12L8 146L8 402L129 402L398 402L398 302L398 273L398 12L377 12L311 12L293 12L268 12L8 12z"/>
<path style="fill:#6a6a6a; stroke:none;" d="M398 12L398 33L398 142L398 144L398 402L353 402L8 402L8.77778 402.722L9.30556 402.75L10.1111 402.944L11.0278 402.972L13 403L15 403L18 403L38 403L115 403L399 403L399 119L399 42L399 22L399 19L399 17L398.972 15.0278L398.944 14.1111L398.75 13.3055L398.722 12.7778L398 12z"/>
<path style="fill:#ffffff; stroke:none;" d="M18 22L18 392L188 392L188 364L76 364L76 345L191 345L190.417 342.944L190.222 341.944L190.083 341L190 339L190 338L190 336L190 327L190 298L187.944 298L186.944 297.972L186 297.917L184 297.611L182 297.139L181 296.833L180 296.556L178 295.722L176 294.611L174 293.333L173 292.667L171 291.306L170 290.583L168.083 288.917L166.389 287L165.639 286L164.167 284L163.444 283L162.278 281L161.833 280L161.389 279L160.667 277L160.361 276.056L159.972 275.056L159.806 274.5L159 273L157.5 272.917L156.944 272.778L155.944 272.611L155 272.361L153 271.861L152 271.611L150 271L148 270.333L147 269.972L146 269.611L144 268.75L143 268.25L141 267.361L140 266.944L138 265.917L136 264.583L135 263.778L134 262.917L132 261L131 260L129.083 258L127.472 256L126.25 254.056L126 253.5L125 252L123.5 252.444L122.944 252.667L121 253.306L120 253.583L119 253.806L117 254.194L115 254.611L113 254.833L111 254.583L110 254.306L108 253.667L106 252.972L105 252.611L103 251.722L102 251.139L101 250.528L99 248.917L98 247.972L96 246L94.0833 244L92.4722 242L91.2778 240L90.8611 239L90.4444 238L90.1667 237L89.6389 235L89.3889 234L89.0833 232L89.0278 231L89 229L89 228L89.0833 226L89.4167 224L89.6944 223L90.3889 221L90.8333 220L91.7778 218L92.25 217L93.4722 215L95.0833 213L97 211.028L98 210.083L100 208.472L102 207.25L103 206.778L104 206.25L105 205.833L106 205.389L108 204.694L109 204.417L111 204.083L112 204.028L114 204L115 204L117 204.083L118 204.222L119 204.417L121 205L121.944 205.306L122.944 205.583L123.5 205.75L125 206L125.972 204.5L126.167 203.944L126.639 202.944L127 202L127.889 200L129 198L129.611 197L130.806 195L131.389 194L132.694 192L133.417 191L135.056 189L136.778 187L137.611 186L138.389 185L140.083 183L142 181L144 179.083L146 177.389L148 175.861L149 175.167L150 174.444L151 173.833L153 172.611L155 171.389L156 170.833L157 170.25L158 169.778L160 168.778L161 168.222L163 167.25L164 166.833L165 166.389L167 165.667L169 165L170 164.694L171 164.389L173 163.861L174 163.639L175 163.361L176 163.139L178 162.639L179 162.389L181 162.083L182 162.028L184 162L186 162L189 162L194 162L196 162L197 162.028L198 162.083L200 162.389L201 162.639L203 163.139L204 163.361L205 163.639L206 163.861L207 164.139L209 164.639L210 164.861L212 165.444L213 165.833L215 166.611L217 167.389L218 167.833L219 168.25L220 168.778L221 169.25L223 170.389L224 171.028L225 171.667L227 173L229 174.333L230 175L232 176.417L233 177.222L234 178.083L236 180L237 181L239 183L240.972 185L241.917 186L243.611 188L245.139 190L245.861 191L246.611 192L247.306 193L248.611 195L249.75 197L250.25 198L251.361 200L251.944 201L252.917 202.944L253.556 204.5L254 206L255.5 205.75L256.056 205.583L257.056 205.306L258 205L260 204.417L261 204.222L262 204.083L264 204L265 204L267 204.028L268 204.083L270 204.389L272 204.861L273 205.167L274 205.444L276 206.278L277 206.861L278 207.472L279 208.25L280 209.083L282 211L283 212L284.917 214L286.528 216L287.722 218L288.167 219L288.611 220L289.306 222L289.583 223L289.778 224L290.056 226L290.194 227L290.389 229L290.389 230L290.306 231L290.056 233L289.944 234L289.583 236L289.278 237L288.917 238L287.917 240L286.667 242L286 243L284.583 245L282.917 247L281 248.917L280 249.75L279 250.528L278 251.139L277 251.722L275 252.611L274 252.972L272 253.611L271 253.861L269 254.361L268 254.611L266 254.917L264 254.917L263 254.778L261 254.361L260 254.139L258 253.556L256.056 252.806L255.5 252.5L254 252L253.472 253.5L253.083 254.056L252.5 255.056L251.778 256L250.194 258L248.611 259.917L246.917 261.611L245.972 262.361L244 263.861L243 264.611L242 265.306L240 266.611L239 267.167L238 267.722L237 268.167L236 268.611L234 269.389L232 270.167L231 270.556L230 270.833L228 271.389L227 271.694L225 272.306L224 272.583L223.056 272.778L221.5 272.972L220 273L219.583 274.444L219.25 275.556L219 277L221.056 277.028L222.056 277.083L224 277.389L226 277.861L227 278.139L228 278.389L229 278.694L231 279.333L233 280.028L234 280.389L235 280.833L236 281.25L237 281.778L238 282.25L240 283.389L241 284.028L243 285.333L244 286L246 287.417L247 288.222L249 290.028L251 292L252 293L253.917 295L255.583 297L256.306 298L257.611 300L258.194 301L259.361 303L259.944 304L260.944 306L261.806 308L262.194 309L262.611 310L263.306 312L263.611 313L263.861 314L264.139 315L264.611 317L265 319L265.389 321L265.611 322L265.917 324L265.972 325L266 326L266 328L266 333L268.056 332.972L269.056 332.917L270.944 332.611L272.5 332.25L274 332L274.583 329.944L274.778 328.944L274.917 328L275 326L275 325L275 323L275 314L275 286L275 277L275 275L275.028 273L275.083 272L275.389 270L275.611 269L276 267L276.472 265L277.25 263L277.778 262L278.25 261L279.472 259L280.25 258L281.083 257L283 255.028L284 254.083L286 252.472L287 251.861L288 251.278L289 250.861L290 250.444L291 250.167L293 249.639L295 249.222L296 249.083L297 249.028L299 249.083L301 249.417L303 250.028L305 250.833L306 251.278L308 252.444L309.972 253.861L311.778 255.389L312.611 256.222L313.361 257.083L314.833 259L316.139 261L316.722 262L317.556 264L317.833 265L318.361 267L318.611 268L318.917 270L319 272L319 274L319 276L319 279L319 282L319 284L318.917 286L318.528 288L317.722 289.972L316.528 291.75L315.75 292.528L313.972 293.639L312 294.111L310 293.806L309 293.333L307.111 291.889L305.722 290L305.111 288L305.028 287L305 286L305 284L305 279L305 277L305 276L305 274L304.917 272L304.583 270L303.972 268.028L303.583 267.083L303.083 266.25L302.5 265.472L301.75 264.861L299.972 263.861L299 263.472L297 263.167L296 263.278L294.028 263.861L293.083 264.278L291.5 265.472L290.5 267.083L290.25 268.028L290.028 270L290 272L290 273L290 274L290 276L290 282L290 313L290 320L290 322L290 323L289.917 325L289.778 326L289.611 327L289.194 329L288.806 331L288.583 332L287.972 334L287.083 336L286.5 337L284.917 339L283.028 341L282.111 341.944L281.306 342.944L280.778 343.5L280 345L332 345L332 364L219 364L219 392L388 392L388 22L197 22L197 96L207 96L207 133L195 133L195 136.056L195 138L195 139L194.917 141L194.75 142L194.528 143L194.139 144L193.722 145L192.611 147L192 148L190.917 149.944L190.278 151.5L190 153L188 153L187.722 151.5L187.083 149.944L186 148L185.389 147L184.278 145L183.861 144L183.472 143L183.25 142L183.083 141L183 139L183 138L183 136.056L183 133L170 133L170 96L180 96L180 22L18 22z"/>
<path style="fill:#3c3c3c; stroke:none;" d="M196 22L196 96L196.722 95.2222L196.75 94.6945L196.944 93.8889L196.972 92.9722L197 92L197 91L197 89L197 78L197 39L197 29L197 27L197 26L196.972 25.0278L196.944 24.1111L196.75 23.3055L196.722 22.7778L196 22z"/>
<path style="fill:#959595; stroke:none;" d="M388 22L388 392L219 392L219.778 392.722L220.306 392.75L221.111 392.944L222.028 392.972L223 393L225 393L226 393L228 393L233 393L266 393L389 393L389 124L389 51L389 31L389 28L389 27L388.972 25.0278L388.944 24.1111L388.75 23.3055L388.722 22.7778L388 22z"/>
<path style="fill:#7f7f7f; stroke:none;" d="M170 96L170 133L170.722 132.222L170.75 131.694L170.944 130.889L170.972 129.972L171 128L171 126L171 122L171 97L180 97L179.222 96.2778L178.694 96.25L177.889 96.0555L176.972 96.0278L175 96L173.056 96L170 96M197 96L197.778 96.7222L198.306 96.75L199.111 96.9445L200.028 96.9722L202 97L203.944 97L207 97L206.222 96.2778L205.694 96.25L204.889 96.0555L203.972 96.0278L202 96L200.056 96L197 96z"/>
<path style="fill:#696969; stroke:none;" d="M172 98L172 131L205 131L205 98L172 98z"/>
<path style="fill:#343434; stroke:none;" d="M205 98L205 131L195 131L195.778 131.722L196.306 131.75L197.111 131.944L198.028 131.972L200 132L202 132L206 132L206 109L206 105L206 103L205.972 101.028L205.944 100.111L205.75 99.3055L205.722 98.7778L205 98M172 131L172.778 131.722L173.306 131.75L174.111 131.944L175.028 131.972L177 132L179 132L183 132L182.222 131.278L181.694 131.25L180.889 131.056L179.972 131.028L178 131L176 131L172 131z"/>
<path style="fill:#3d3d3d; stroke:none;" d="M194 133L194 143L194.722 142.222L194.75 141.694L194.944 140.889L194.972 139.972L195 138L194.972 136.028L194.944 135.111L194.75 134.306L194.722 133.778L194 133z"/>
<path style="fill:#2a2a2a; stroke:none;" d="M183 142L183.778 142.722L184.306 142.75L185.111 142.944L186.028 142.972L188 143L190 143L194 143L193.222 142.278L192.694 142.25L191.889 142.056L190.972 142.028L189 142L187 142L183 142z"/>
<path style="fill:#898989; stroke:none;" d="M183 143L184 144L183 143z"/>
<path style="fill:#000000; stroke:none;" d="M184 143L184.333 144.5L184.639 145.056L185.083 146.056L186.139 147.944L186.75 148.944L187 149.5L188 151L190 151L191 149.5L191.25 148.944L191.861 147.944L192.917 146.056L193.361 145.056L193.667 144.5L194 143L184 143z"/>
<path style="fill:#7b7b7b; stroke:none;" d="M194 143L195 144L194 143z"/>
<path style="fill:#a8a8a8; stroke:none;" d="M184 145L185 146L184 145z"/>
<path style="fill:#9d9d9d; stroke:none;" d="M193 145L194 146L193 145z"/>
<path style="fill:#4e4e4e; stroke:none;" d="M185 146L186 147L185 146z"/>
<path style="fill:#414141; stroke:none;" d="M192 146L193 147L192 146z"/>
<path style="fill:#cacaca; stroke:none;" d="M185 147L186 148L185 147z"/>
<path style="fill:#bfbfbf; stroke:none;" d="M192 147L193 148L192 147z"/>
<path style="fill:#6e6e6e; stroke:none;" d="M186 148L187 149L186 148z"/>
<path style="fill:#636363; stroke:none;" d="M191 148L192 149L191 148z"/>
<path style="fill:#929292; stroke:none;" d="M187 150L188 151L187 150z"/>
<path style="fill:#818181; stroke:none;" d="M190 150L191 151L190 150z"/>
<path style="fill:#252525; stroke:none;" d="M188.667 151.333L188.667 151.667L189.333 151.667L189.333 151.333L188.667 151.333z"/>
<path style="fill:#a3a3a3; stroke:none;" d="M188.667 152.333L188.667 152.667L189.333 152.667L189.333 152.333L188.667 152.333z"/>
<path style="fill:#aeaeae; stroke:none;" d="M178 162L178.722 162.722L179.25 162.75L181 163L180.278 162.278L179.75 162.25L178 162z"/>
<path style="fill:#686868; stroke:none;" d="M181.667 162.333L182 162.667L182.333 162.667L182 162.333L181.667 162.333z"/>
<path style="fill:#262626; stroke:none;" d="M183 162L183.778 162.722L184.306 162.75L185.056 162.944L185.972 162.972L188 163L187.222 162.278L186.694 162.25L185.944 162.056L185.028 162.028L183 162z"/>
<path style="fill:#000000; stroke:none;" d="M126 207L124.5 206.556L123.944 206.333L122 205.694L121 205.417L120 205.194L118 204.806L117 204.611L115 204.306L113 204.417L112 204.611L110 204.944L109 205.056L107 205.417L105 206.028L104 206.417L102 207.417L101 208.028L99 209.417L97.0278 211.083L96.0833 212.028L94.4167 214L93.6944 215L93.0278 216L92.4167 217L91.4167 219L91.0278 220L90.4167 222L90.0556 224L89.9444 225L89.6389 227L89.4444 229L89.4722 230L89.6389 231L89.9444 233L90.0556 234L90.4167 236L90.6944 237L91.3889 239L92.2778 241L92.8611 242L94.1667 244L95.6389 245.917L96.3889 246.778L98.0833 248.306L99.0278 249L100 249.667L102 250.917L103 251.444L104 251.917L106 252.667L108 253.306L110 253.778L111 253.917L113 254L114 254L116 253.972L117 253.917L119 253.611L120 253.361L121 253.139L122 252.861L122.944 252.639L124.5 252.25L126 252L126.333 253.5L126.639 254.056L127.111 255.056L128.333 257L129 257.972L130.417 259.778L131.222 260.611L133.028 262.139L134 262.861L135 263.611L136 264.306L138 265.611L140 266.722L141 267.167L142 267.611L144 268.389L146 269.194L147 269.611L149 270.333L150 270.667L152 271.306L153 271.583L154 271.806L155 272L157 272.472L158.944 273.194L159.5 273.5L161 274L161.028 275.5L161.25 277.056L161.472 278L162.25 280L162.778 281L163.833 283L164.389 284L165.028 285L165.694 286L167.222 287.917L169.028 289.611L170 290.361L172 291.833L173 292.556L175 293.75L176 294.222L178 295.167L179 295.611L181 296.306L182 296.583L184 296.917L186 297.083L187.944 297.389L189.5 297.75L191 298L191 329L191 335L191 337L191 338L191 340L191.028 341L191.056 341.944L191.25 342.944L191.278 343.5L192 345L76 345L76 363L188 363L188 392L218 392L218 364L219 363L331 363L331 345L278 345L279.5 343.944L280.056 343.611L281.917 342.306L283.583 340.778L284.972 338.972L286.167 337L286.722 336L287.611 334L288.306 332L288.583 331L288.778 330L288.917 329L289 327L289 326L289 324L289 316L289 285L289 275L289 273L289 272L289.111 270L289.722 268L290.333 267L291.111 266.028L292.028 265.111L293 264.306L294 263.667L295 263.194L297 262.833L299 263.194L300 263.667L301 264.306L301.972 265.111L302.889 266.028L304.278 268L304.667 269L304.972 271L305 273L305 275L305 278L305 282L305 284L305 285L305.083 287L305.25 288L305.472 289L306.194 290.944L306.5 291.5L307 293L308.5 293.25L310.056 293.611L312 293.833L313.972 293.5L315.75 292.5L316.5 291.75L317.5 289.972L317.917 288L318 286L318 285L318 283L318 274L318 272L318 271L317.972 269L317.917 268L317.583 266L317.306 265L316.611 263L316.167 262L315.722 261L315.167 260L313.972 258L312.583 256.083L310.917 254.472L309.972 253.833L308 252.639L307 252.056L305 251.083L303 250.417L302 250.222L301 250.083L299 250L298 250L297 250L295 250.028L294 250.083L292 250.417L290 251.028L289 251.389L287 252.278L286 252.833L285.028 253.389L283.222 254.694L282.417 255.417L281 257.083L280.333 258.028L279.667 259L278.417 261L277.5 263L277.222 264L276.806 266L276.389 268L276.222 269L276.083 270L276 272L276 274L276 279L276 311L276 321L276 323L276 324L276 325L275.889 327L275.278 329L274.667 329.972L272.972 331.694L272 332.361L270 333.278L268.056 333.778L266.5 333.972L265 334L265 326L265 324L265 323L264.917 321L264.611 319L264.361 318L263.861 316L263.639 315L263.361 314L262.861 312L262.611 311L262.306 310L261.611 308L261.167 307L260.75 306L260.222 305L259.75 304L258.611 302L257.333 300L256.667 299L256 298L254.583 296L253.778 295L252.917 294L251 292L249 290.083L247 288.389L246 287.639L244 286.167L243 285.444L241 284.194L240 283.639L239 283.056L237 282.056L236 281.639L235 281.194L233 280.389L231 279.694L230 279.389L229 279.139L227 278.639L226 278.389L224 278.083L222 277.917L221.056 277.778L219.5 277.417L218 277L218.528 275.528L218.917 275.028L220.25 273.5L222.028 272.5L224 272L226 271.583L228 271L229 270.667L231 270L233 269.333L234 268.972L235 268.611L237 267.75L238 267.222L240 266.222L241 265.75L243 264.556L244 263.833L246 262.361L246.972 261.611L248.778 259.917L250.306 258L251.667 256L252.917 254.056L253.306 253.5L254 252L255.5 252.444L256.056 252.667L258 253.306L259 253.583L261 253.917L263 254L265 254L267 254L268 253.972L269 253.917L271 253.583L272 253.306L274 252.611L275 252.167L277 251.222L278 250.75L280 249.528L281.972 247.917L283.778 246L284.583 245L285.972 243L287.167 241L287.722 240L288.528 238L288.778 237L289 236L289.389 234L289.611 233L289.917 231L289.972 230L289.917 228L289.611 226L289.389 225L289 223L288.778 222L288.528 221L287.75 219L287.222 218L286.75 217L285.556 215L284.833 214.028L284.139 213.083L282.611 211.389L280.917 209.861L279.972 209.167L279 208.444L278 207.861L277 207.278L276 206.833L275 206.389L273 205.694L272 205.417L270 205.056L269 204.944L267 204.639L266 204.472L264 204.472L263 204.639L261 204.944L260 205.056L258 205.417L256.056 206.028L255.5 206.194L254 207L253.722 205.5L253.139 203.944L252.75 203L252.222 202L251.75 201L251.167 200L250.611 199L249.389 197L248.194 195L247.611 194L246.972 193L245.667 191L244.306 189L242.778 187L241.917 186L240 184L239 183L238 182L237 181L235 179.083L233 177.389L231 175.861L230 175.167L229 174.444L228 173.833L227 173.194L225 172L223 170.833L222 170.25L221 169.778L219 168.778L218 168.25L216 167.389L215 167.028L213 166.333L212 166L210 165.389L208 164.861L207 164.639L206 164.361L205 164.139L203 163.639L202 163.389L200 163.083L198 163L196 163L195 162.972L194 162.917L192 162.611L191 162.417L189 162.306L187 162.611L185 162.917L184 162.972L183 163L181 163L179 163.083L177 163.389L176 163.639L174 164.139L173 164.361L172 164.639L171 164.861L170 165.139L168 165.694L166 166.389L165 166.806L163 167.611L162 168L160 168.889L158 170L157 170.611L155 171.75L154 172.25L152 173.389L150 174.694L149 175.389L148 176.139L146 177.639L145 178.389L143 180.083L141 182L140.028 183L139.083 184L137.389 186L136.639 187L135.139 189L134.389 190L133.694 191L132.333 193L131.028 195L130.389 196L129.25 198L128.778 199L127.778 201L127.25 202L126.472 203.944L126.083 205.5L126 207z"/>
<path style="fill:#202020; stroke:none;" d="M191 162L191.722 162.722L192.25 162.75L194 163L193.278 162.278L192.75 162.25L191 162z"/>
<path style="fill:#464646; stroke:none;" d="M194 162L194.722 162.722L195.25 162.75L197 163L196.278 162.278L195.75 162.25L194 162z"/>
<path style="fill:#8f8f8f; stroke:none;" d="M197 162L197.722 162.722L198.25 162.75L200 163L199.278 162.278L198.75 162.25L197 162z"/>
<path style="fill:#bfbfbf; stroke:none;" d="M200 162L201 163L200 162z"/>
<path style="fill:#cfcfcf; stroke:none;" d="M174 163L175 164L174 163z"/>
<path style="fill:#8f8f8f; stroke:none;" d="M175 163L176 164L175 163z"/>
<path style="fill:#505050; stroke:none;" d="M176 163L177 164L176 163z"/>
<path style="fill:#3a3a3a; stroke:none;" d="M202 163L203 164L202 163z"/>
<path style="fill:#767676; stroke:none;" d="M203 163L204 164L203 163z"/>
<path style="fill:#b3b3b3; stroke:none;" d="M204 163L205 164L204 163z"/>
<path style="fill:#c3c3c3; stroke:none;" d="M170 164L171 165L170 164z"/>
<path style="fill:#8f8f8f; stroke:none;" d="M171 164L172 165L171 164z"/>
<path style="fill:#505050; stroke:none;" d="M172 164L173 165L172 164z"/>
<path style="fill:#323232; stroke:none;" d="M206 164L207 165L206 164z"/>
<path style="fill:#757575; stroke:none;" d="M207 164L208 165L207 164z"/>
<path style="fill:#b0b0b0; stroke:none;" d="M208 164L209 165L208 164z"/>
<path style="fill:#999999; stroke:none;" d="M167 165L168 166L167 165z"/>
<path style="fill:#4a4a4a; stroke:none;" d="M168 165L169 166L168 165z"/>
<path style="fill:#393939; stroke:none;" d="M210 165L211 166L210 165z"/>
<path style="fill:#828282; stroke:none;" d="M211 165L212 166L211 165z"/>
<path style="fill:#cecece; stroke:none;" d="M212 165L213 166L212 165z"/>
<path style="fill:#b0b0b0; stroke:none;" d="M164 166L165 167L164 166z"/>
<path style="fill:#606060; stroke:none;" d="M165 166L166 167L165 166z"/>
<path style="fill:#414141; stroke:none;" d="M213 166L214 167L213 166z"/>
<path style="fill:#8d8d8d; stroke:none;" d="M214 166L215 167L214 166z"/>
<path style="fill:#929292; stroke:none;" d="M162 167L163 168L162 167z"/>
<path style="fill:#313131; stroke:none;" d="M163 167L164 168L163 167z"/>
<path style="fill:#626262; stroke:none;" d="M216 167L217 168L216 167z"/>
<path style="fill:#c3c3c3; stroke:none;" d="M217 167L218 168L217 167z"/>
<path style="fill:#888888; stroke:none;" d="M160 168L161 169L160 168z"/>
<path style="fill:#575757; stroke:none;" d="M218 168L219 169L218 168z"/>
<path style="fill:#b8b8b8; stroke:none;" d="M219 168L220 169L219 168z"/>
<path style="fill:#858585; stroke:none;" d="M158 169L159 170L158 169z"/>
<path style="fill:#4e4e4e; stroke:none;" d="M220 169L221 170L220 169z"/>
<path style="fill:#bcbcbc; stroke:none;" d="M221 169L222 170L221 169z"/>
<path style="fill:#9b9b9b; stroke:none;" d="M156 170L157 171L156 170z"/>
<path style="fill:#2c2c2c; stroke:none;" d="M157 170L158 171L157 170z"/>
<path style="fill:#646464; stroke:none;" d="M222 170L223 171L222 170z"/>
<path style="fill:#d3d3d3; stroke:none;" d="M223 170L224 171L223 170z"/>
<path style="fill:#b1b1b1; stroke:none;" d="M154 171L155 172L154 171z"/>
<path style="fill:#434343; stroke:none;" d="M155 171L156 172L155 171z"/>
<path style="fill:#7a7a7a; stroke:none;" d="M224 171L225 172L224 171z"/>
<path style="fill:#646464; stroke:none;" d="M153 172L154 173L153 172z"/>
<path style="fill:#2d2d2d; stroke:none;" d="M225 172L226 173L225 172z"/>
<path style="fill:#aaaaaa; stroke:none;" d="M226 172L227 173L226 172z"/>
<path style="fill:#909090; stroke:none;" d="M151 173L152 174L151 173z"/>
<path style="fill:#666666; stroke:none;" d="M227 173L228 174L227 173z"/>
<path style="fill:#c5c5c5; stroke:none;" d="M149 174L150 175L149 174z"/>
<path style="fill:#444444; stroke:none;" d="M150 174L151 175L150 174z"/>
<path style="fill:#a1a1a1; stroke:none;" d="M229 174L230 175L229 174z"/>
<path style="fill:#979797; stroke:none;" d="M148 175L149 176L148 175z"/>
<path style="fill:#696969; stroke:none;" d="M230 175L231 176L230 175z"/>
<path style="fill:#686868; stroke:none;" d="M147 176L148 177L147 176z"/>
<path style="fill:#323232; stroke:none;" d="M231 176L232 177L231 176z"/>
<path style="fill:#b7b7b7; stroke:none;" d="M232 176L233 177L232 176z"/>
<path style="fill:#cdcdcd; stroke:none;" d="M145 177L146 178L145 177z"/>
<path style="fill:#3a3a3a; stroke:none;" d="M146 177L147 178L146 177z"/>
<path style="fill:#7f7f7f; stroke:none;" d="M233 177L234 178L233 177z"/>
<path style="fill:#bfbfbf; stroke:none;" d="M144 178L145 179L144 178z"/>
<path style="fill:#686868; stroke:none;" d="M234 178L235 179L234 178z"/>
<path style="fill:#bfbfbf; stroke:none;" d="M143 179L144 180L143 179z"/>
<path style="fill:#505050; stroke:none;" d="M235 179L236 180L235 179z"/>
<path style="fill:#bfbfbf; stroke:none;" d="M142 180L143 181L142 180z"/>
<path style="fill:#404040; stroke:none;" d="M236 180L237 181L236 180z"/>
<path style="fill:#bfbfbf; stroke:none;" d="M141 181L142 182L141 181z"/>
<path style="fill:#464646; stroke:none;" d="M237 181L238 182L237 181z"/>
<path style="fill:#bfbfbf; stroke:none;" d="M140 182L141 183L140 182z"/>
<path style="fill:#585858; stroke:none;" d="M238 182L239 183L238 182z"/>
<path style="fill:#bfbfbf; stroke:none;" d="M139 183L140 184L139 183z"/>
<path style="fill:#6a6a6a; stroke:none;" d="M239 183L240 184L239 183z"/>
<path style="fill:#bfbfbf; stroke:none;" d="M138 184L139 185L138 184z"/>
<path style="fill:#7b7b7b; stroke:none;" d="M240 184L241 185L240 184z"/>
<path style="fill:#aaaaaa; stroke:none;" d="M241 185L242 186L241 185z"/>
<path style="fill:#bfbfbf; stroke:none;" d="M242 186L243 187L242 186z"/>
<path style="fill:#474747; stroke:none;" d="M136 187L137 188L136 187z"/>
<path style="fill:#cbcbcb; stroke:none;" d="M243 187L244 188L243 187z"/>
<path style="fill:#545454; stroke:none;" d="M135 188L136 189L135 188z"/>
<path style="fill:#888888; stroke:none;" d="M134 189L135 190L134 189z"/>
<path style="fill:#595959; stroke:none;" d="M244 189L245 190L244 189z"/>
<path style="fill:#bfbfbf; stroke:none;" d="M133 190L134 191L133 190z"/>
<path style="fill:#909090; stroke:none;" d="M245 190L246 191L245 190z"/>
<path style="fill:#3a3a3a; stroke:none;" d="M133 191L134 192L133 191z"/>
<path style="fill:#c8c8c8; stroke:none;" d="M246 191L247 192L246 191z"/>
<path style="fill:#727272; stroke:none;" d="M132 192L133 193L132 192z"/>
<path style="fill:#434343; stroke:none;" d="M246 192L247 193L246 192z"/>
<path style="fill:#b8b8b8; stroke:none;" d="M131 193L132 194L131 193z"/>
<path style="fill:#888888; stroke:none;" d="M247 193L248 194L247 193z"/>
<path style="fill:#414141; stroke:none;" d="M131 194L132 195L131 194z"/>
<path style="fill:#d4d4d4; stroke:none;" d="M248 194L249 195L248 194z"/>
<path style="fill:#8d8d8d; stroke:none;" d="M130 195L131 196L130 195z"/>
<path style="fill:#5c5c5c; stroke:none;" d="M248 195L249 196L248 195z"/>
<path style="fill:#a8a8a8; stroke:none;" d="M249 196L250 197L249 196z"/>
<path style="fill:#666666; stroke:none;" d="M129 197L130 198L129 197z"/>
<path style="fill:#323232; stroke:none;" d="M249 197L250 198L249 197z"/>
<path style="fill:#cccccc; stroke:none;" d="M128 198L129 199L128 198z"/>
<path style="fill:#8b8b8b; stroke:none;" d="M250 198L251 199L250 198z"/>
<path style="fill:#666666; stroke:none;" d="M128 199L129 200L128 199z"/>
<path style="fill:#cccccc; stroke:none;" d="M127 200L128 201L127 200z"/>
<path style="fill:#747474; stroke:none;" d="M251 200L252 201L251 200z"/>
<path style="fill:#666666; stroke:none;" d="M127 201L128 202L127 201z"/>
<path style="fill:#cdcdcd; stroke:none;" d="M252 201L253 202L252 201z"/>
<path style="fill:#393939; stroke:none;" d="M164 202L164.722 202.722L165.25 202.75L167 203L166.278 202.278L165.75 202.25L164 202z"/>
<path style="fill:#6d6d6d; stroke:none;" d="M252 202L253 203L252 202z"/>
<path style="fill:#787878; stroke:none;" d="M126 203L127 204L126 203z"/>
<path style="fill:#626262; stroke:none;" d="M159 203L160 204L159 203z"/>
<path style="fill:#d2d2d2; stroke:none;" d="M160.667 203.333L161 203.667L161.333 203.667L161 203.333L160.667 203.333z"/>
<path style="fill:#ffffff; stroke:none;" d="M172 251L171 252.5L170.778 253.056L170.194 254.056L169.778 255L168.778 257L168.25 258L167.389 260L166.694 262L166.417 263L166.222 264L166.028 266L166 267L166.083 269L166.389 271L166.639 272L167.139 274L167.389 275L168.083 277L168.556 278L169.083 279L170.333 281L171 282L172.417 283.917L174.083 285.583L175.028 286.306L177 287.583L179 288.583L180 288.972L182 289.667L183 290L185 290.583L186 290.778L187 290.917L189 291L190 291L191 291L193 290.917L195 290.583L196 290.306L198 289.611L199 289.167L200 288.75L201 288.222L202 287.75L204 286.528L205.972 284.917L207.75 283L208.528 282L209.806 280L210.361 279L211.389 277L212.111 275L212.361 274L212.611 273L212.917 271L212.972 270L213 268L213 267L212.972 265L212.917 264L212.583 262L212.306 261L211.611 259L210.75 257L210.222 256L209.75 255L209.167 254L208.056 252.056L207.694 251.5L207 250L208.5 250.083L209.056 250.222L210.056 250.389L211 250.611L213 250.833L215 250.611L216 250.389L217 250.222L218 250.056L219 249.944L221 249.583L222 249.306L224 248.583L226 247.583L227 246.972L229 245.583L230.917 243.917L232.528 242L233.167 241L234.361 239L234.944 238L235.917 236L236.278 235L236.583 234L236.944 232L237.056 231L237.361 229L237.528 228L237.556 227L237.361 225L237.056 223L236.944 222L236.528 220L236.139 219L235.75 218L234.75 216L234.167 215L233.611 214L232.306 212.028L231.583 211.083L229.917 209.472L228 208.194L227 207.611L226 207L224 205.889L223 205.417L221 204.694L220 204.417L218 204.083L216 204L214 204L212 204L211 204.028L210 204.083L208 204.417L207 204.694L205 205.389L204 205.833L203 206.278L201 207.444L199.083 208.861L198.222 209.639L197.389 210.389L196.639 211.222L195.861 212.083L194.444 214L193.833 215L192.639 217L192.083 217.944L191.639 218.944L191.333 219.5L191 221L189 221L188.722 219.5L188.139 217.944L187.722 217L187.167 216L185.972 214L185.306 213L183.778 211L181.972 209.083L181 208.25L180 207.472L178 206.25L177 205.778L176 205.25L175 204.861L174 204.444L173 204.167L171 203.639L170 203.389L168 203.083L166 203L165 203.028L164 203.083L162 203.389L161 203.639L159 204.139L158 204.389L156 205.028L155 205.417L153 206.417L151 207.694L150.028 208.417L148.222 210.083L146.694 212L146.028 213L144.833 215L144.278 216L143.389 218L142.694 220L142.417 221L142.222 222L142.083 223L142 225L142 226L142 227L142.028 229L142.083 230L142.389 232L142.639 233L143.167 235L143.472 236L144.417 238L145.667 240L146.333 241L147.694 242.917L148.417 243.778L149.222 244.583L151.028 245.972L152 246.611L153 247.167L154 247.722L156 248.611L157 248.972L159 249.583L161 249.944L162 250.056L164 250.389L165 250.611L167 250.917L168 250.972L169.944 251L172 251z"/>
<path style="fill:#999999; stroke:none;" d="M170.667 203.333L171 203.667L171.333 203.667L171 203.333L170.667 203.333z"/>
<path style="fill:#6b6b6b; stroke:none;" d="M172 203L173 204L172 203z"/>
<path style="fill:#353535; stroke:none;" d="M209 203L210 204L209 203z"/>
<path style="fill:#8e8e8e; stroke:none;" d="M210.667 203.333L211 203.667L211.333 203.667L211 203.333L210.667 203.333z"/>
<path style="fill:#b5b5b5; stroke:none;" d="M212 203L212.722 203.722L213.25 203.75L215 204L214.278 203.278L213.75 203.25L212 203z"/>
<path style="fill:#7c7c7c; stroke:none;" d="M215 203L215.722 203.722L216.25 203.75L218 204L217.278 203.278L216.75 203.25L215 203z"/>
<path style="fill:#464646; stroke:none;" d="M218 203L219 204L218 203z"/>
<path style="fill:#bfbfbf; stroke:none;" d="M108 204L109 205L108 204z"/>
<path style="fill:#606060; stroke:none;" d="M109.667 204.333L109.667 204.667L110.333 204.667L110 204.333L109.667 204.333z"/>
<path style="fill:#2d2d2d; stroke:none;" d="M111.667 204.333L111.667 204.667L112.333 204.667L112 204.333L111.667 204.333z"/>
<path style="fill:#717171; stroke:none;" d="M116 204L116.722 204.722L117.25 204.75L119 205L118.278 204.278L117.75 204.25L116 204z"/>
<path style="fill:#b7b7b7; stroke:none;" d="M119 204L120 205L119 204z"/>
<path style="fill:#2c2c2c; stroke:none;" d="M155 204L156 205L155 204z"/>
<path style="fill:#8e8e8e; stroke:none;" d="M156 204L157 205L156 204z"/>
<path style="fill:#cbcbcb; stroke:none;" d="M157 204L158 205L157 204z"/>
<path style="fill:#9c9c9c; stroke:none;" d="M174 204L175 205L174 204z"/>
<path style="fill:#4a4a4a; stroke:none;" d="M175 204L176 205L175 204z"/>
<path style="fill:#6d6d6d; stroke:none;" d="M206 204L207 205L206 204z"/>
<path style="fill:#b6b6b6; stroke:none;" d="M207 204L208 205L207 204z"/>
<path style="fill:#a1a1a1; stroke:none;" d="M220 204L221 205L220 204z"/>
<path style="fill:#545454; stroke:none;" d="M221 204L222 205L221 204z"/>
<path style="fill:#878787; stroke:none;" d="M253 204L254 205L253 204z"/>
<path style="fill:#9e9e9e; stroke:none;" d="M259 204L259.722 204.722L260.25 204.75L262 205L261.278 204.278L260.75 204.25L259 204z"/>
<path style="fill:#3a3a3a; stroke:none;" d="M262.667 204.333L263 204.667L263.333 204.667L263 204.333L262.667 204.333z"/>
<path style="fill:#393939; stroke:none;" d="M266.667 204.333L267 204.667L267.333 204.667L267 204.333L266.667 204.333z"/>
<path style="fill:#6c6c6c; stroke:none;" d="M268 204L268.722 204.722L269.25 204.75L271 205L270.278 204.278L269.75 204.25L268 204z"/>
<path style="fill:#acacac; stroke:none;" d="M105 205L106 206L105 205z"/>
<path style="fill:#696969; stroke:none;" d="M106 205L107 206L106 205z"/>
<path style="fill:#555555; stroke:none;" d="M121 205L122 206L121 205z"/>
<path style="fill:#aaaaaa; stroke:none;" d="M122 205L123 206L122 205z"/>
<path style="fill:#a7a7a7; stroke:none;" d="M125 205L126 206L125 205z"/>
<path style="fill:#838383; stroke:none;" d="M154 205L155 206L154 205z"/>
<path style="fill:#a8a8a8; stroke:none;" d="M176 205L177 206L176 205z"/>
<path style="fill:#3b3b3b; stroke:none;" d="M177 205L178 206L177 205z"/>
<path style="fill:#444444; stroke:none;" d="M203 205L204 206L203 205z"/>
<path style="fill:#b2b2b2; stroke:none;" d="M204 205L205 206L204 205z"/>
<path style="fill:#959595; stroke:none;" d="M223 205L224 206L223 205z"/>
<path style="fill:#cccccc; stroke:none;" d="M256 205L257 206L256 205z"/>
<path style="fill:#737373; stroke:none;" d="M257 205L258 206L257 205z"/>
<path style="fill:#404040; stroke:none;" d="M272 205L273 206L272 205z"/>
<path style="fill:#8b8b8b; stroke:none;" d="M273 205L274 206L273 205z"/>
<path style="fill:#cdcdcd; stroke:none;" d="M274 205L275 206L274 205z"/>
<path style="fill:#858585; stroke:none;" d="M103 206L104 207L103 206z"/>
<path style="fill:#383838; stroke:none;" d="M124.667 206.333L124.667 206.667L125.333 206.667L125 206.333L124.667 206.333z"/>
<path style="fill:#6a6a6a; stroke:none;" d="M152 206L153 207L152 206z"/>
<path style="fill:#919191; stroke:none;" d="M178 206L179 207L178 206z"/>
<path style="fill:#2f2f2f; stroke:none;" d="M201 206L202 207L201 206z"/>
<path style="fill:#9f9f9f; stroke:none;" d="M202 206L203 207L202 206z"/>
<path style="fill:#7c7c7c; stroke:none;" d="M225 206L226 207L225 206z"/>
<path style="fill:#676767; stroke:none;" d="M254 206L255 207L254 206z"/>
<path style="fill:#505050; stroke:none;" d="M275 206L276 207L275 206z"/>
<path style="fill:#bbbbbb; stroke:none;" d="M276 206L277 207L276 206z"/>
<path style="fill:#919191; stroke:none;" d="M101 207L102 208L101 207z"/>
<path style="fill:#a5a5a5; stroke:none;" d="M151 207L152 208L151 207z"/>
<path style="fill:#5c5c5c; stroke:none;" d="M180 207L181 208L180 207z"/>
<path style="fill:#686868; stroke:none;" d="M200 207L201 208L200 207z"/>
<path style="fill:#d3d3d3; stroke:none;" d="M226 207L227 208L226 207z"/>
<path style="fill:#606060; stroke:none;" d="M227 207L228 208L227 207z"/>
<path style="fill:#5c5c5c; stroke:none;" d="M277 207L278 208L277 207z"/>
<path style="fill:#c7c7c7; stroke:none;" d="M278 207L279 208L278 207z"/>
<path style="fill:#bfbfbf; stroke:none;" d="M99 208L100 209L99 208z"/>
<path style="fill:#323232; stroke:none;" d="M100 208L101 209L100 208z"/>
<path style="fill:#888888; stroke:none;" d="M181 208L182 209L181 208z"/>
<path style="fill:#a1a1a1; stroke:none;" d="M199 208L200 209L199 208z"/>
<path style="fill:#9f9f9f; stroke:none;" d="M228 208L229 209L228 208z"/>
<path style="fill:#767676; stroke:none;" d="M279 208L280 209L279 208z"/>
<path style="fill:#a3a3a3; stroke:none;" d="M98 209L99 210L98 209z"/>
<path style="fill:#3b3b3b; stroke:none;" d="M148 209L149 210L148 209z"/>
<path style="fill:#989898; stroke:none;" d="M182 209L183 210L182 209z"/>
<path style="fill:#c8c8c8; stroke:none;" d="M198 209L199 210L198 209z"/>
<path style="fill:#525252; stroke:none;" d="M280 209L281 210L280 209z"/>
<path style="fill:#919191; stroke:none;" d="M97 210L98 211L97 210z"/>
<path style="fill:#808080; stroke:none;" d="M183 210L184 211L183 210z"/>
<path style="fill:#2e2e2e; stroke:none;" d="M281 210L282 211L281 210z"/>
<path style="fill:#7f7f7f; stroke:none;" d="M96 211L97 212L96 211z"/>
<path style="fill:#424242; stroke:none;" d="M184 211L185 212L184 211z"/>
<path style="fill:#d2d2d2; stroke:none;" d="M196 211L197 212L196 211z"/>
<path style="fill:#b7b7b7; stroke:none;" d="M95 212L96 213L95 212z"/>
<path style="fill:#b4b4b4; stroke:none;" d="M146 212L147 213L146 212z"/>
<path style="fill:#303030; stroke:none;" d="M185 212L186 213L185 212z"/>
<path style="fill:#8d8d8d; stroke:none;" d="M195 212L196 213L195 212z"/>
<path style="fill:#9f9f9f; stroke:none;" d="M232 212L233 213L232 212z"/>
<path style="fill:#3b3b3b; stroke:none;" d="M283 212L284 213L283 212z"/>
<path style="fill:#c2c2c2; stroke:none;" d="M94 213L95 214L94 213z"/>
<path style="fill:#9a9a9a; stroke:none;" d="M145 213L146 214L145 213z"/>
<path style="fill:#bdbdbd; stroke:none;" d="M185 213L186 214L185 213z"/>
<path style="fill:#6e6e6e; stroke:none;" d="M194 213L195 214L194 213z"/>
<path style="fill:#868686; stroke:none;" d="M233 213L234 214L233 213z"/>
<path style="fill:#828282; stroke:none;" d="M284 213L285 214L284 213z"/>
<path style="fill:#cecece; stroke:none;" d="M93 214L94 215L93 214z"/>
<path style="fill:#3b3b3b; stroke:none;" d="M144 214L145 215L144 214z"/>
<path style="fill:#777777; stroke:none;" d="M186 214L187 215L186 214z"/>
<path style="fill:#383838; stroke:none;" d="M234 214L235 215L234 214z"/>
<path style="fill:#9a9a9a; stroke:none;" d="M285 214L286 215L285 214z"/>
<path style="fill:#323232; stroke:none;" d="M93 215L94 216L93 215z"/>
<path style="fill:#a6a6a6; stroke:none;" d="M144 215L145 216L144 215z"/>
<path style="fill:#303030; stroke:none;" d="M187 215L188 216L187 215z"/>
<path style="fill:#a3a3a3; stroke:none;" d="M193 215L194 216L193 215M234 215L235 216L234 215z"/>
<path style="fill:#c5c5c5; stroke:none;" d="M286 215L287 216L286 215z"/>
<path style="fill:#919191; stroke:none;" d="M92 216L93 217L92 216z"/>
<path style="fill:#474747; stroke:none;" d="M143 216L144 217L143 216z"/>
<path style="fill:#999999; stroke:none;" d="M187 216L188 217L187 216z"/>
<path style="fill:#545454; stroke:none;" d="M192 216L193 217L192 216z"/>
<path style="fill:#444444; stroke:none;" d="M235 216L236 217L235 216z"/>
<path style="fill:#515151; stroke:none;" d="M286 216L287 217L286 216z"/>
<path style="fill:#b2b2b2; stroke:none;" d="M143 217L144 218L143 217z"/>
<path style="fill:#2b2b2b; stroke:none;" d="M188 217L189 218L188 217z"/>
<path style="fill:#c3c3c3; stroke:none;" d="M192 217L193 218L192 217z"/>
<path style="fill:#afafaf; stroke:none;" d="M235 217L236 218L235 217z"/>
<path style="fill:#a2a2a2; stroke:none;" d="M287 217L288 218L287 217z"/>
<path style="fill:#858585; stroke:none;" d="M91 218L92 219L91 218z"/>
<path style="fill:#999999; stroke:none;" d="M188 218L189 219L188 218z"/>
<path style="fill:#6c6c6c; stroke:none;" d="M191 218L192 219L191 218z"/>
<path style="fill:#3c3c3c; stroke:none;" d="M236 218L237 219L236 218z"/>
<path style="fill:#2e2e2e; stroke:none;" d="M287 218L288 219L287 218z"/>
<path style="fill:#575757; stroke:none;" d="M142 219L143 220L142 219z"/>
<path style="fill:#8d8d8d; stroke:none;" d="M236 219L237 220L236 219z"/>
<path style="fill:#7f7f7f; stroke:none;" d="M288 219L289 220L288 219z"/>
<path style="fill:#a4a4a4; stroke:none;" d="M90 220L91 221L90 220z"/>
<path style="fill:#303030; stroke:none;" d="M113.667 220.333L114 220.667L114.333 220.667L114 220.333L113.667 220.333z"/>
<path style="fill:#9a9a9a; stroke:none;" d="M142 220L143 221L142 220z"/>
<path style="fill:#797979; stroke:none;" d="M189.667 220.333L190 220.667L190.333 220.667L190 220.333L189.667 220.333z"/>
<path style="fill:#323232; stroke:none;" d="M265.667 220.333L266 220.667L266.333 220.667L266.333 220.333L265.667 220.333z"/>
<path style="fill:#414141; stroke:none;" d="M288 220L289 221L288 220z"/>
<path style="fill:#5b5b5b; stroke:none;" d="M90 221L91 222L90 221z"/>
<path style="fill:#2f2f2f; stroke:none;" d="M109 221L110 222L109 221z"/>
<path style="fill:#7a7a7a; stroke:none;" d="M110 221L111 222L110 221z"/>
<path style="fill:#cfcfcf; stroke:none;" d="M111 221L112 222L111 221z"/>
<path style="fill:#ffffff; stroke:none;" d="M112 221.417L111 221.722L110.028 222.111L109.083 222.639L107.5 224.111L106.944 225.028L106.25 227L106.083 228L106.028 230L106.083 231L106.25 232L106.944 233.917L107.5 234.75L108.25 235.5L110.028 236.5L112 236.917L114 237L115 236.972L117 236.75L117.972 236.5L119.75 235.5L120.5 234.75L121.5 232.972L121.917 231L121.972 230L121.917 228L121.5 226L121.056 225.028L120.5 224.111L118.917 222.639L117.972 222.111L117 221.722L116 221.417L114 221.167L112 221.417z"/>
<path style="fill:#b1b1b1; stroke:none;" d="M116 221L117 222L116 221z"/>
<path style="fill:#808080; stroke:none;" d="M117 221L118 222L117 221z"/>
<path style="fill:#404040; stroke:none;" d="M237 221L238 222L237 221z"/>
<path style="fill:#646464; stroke:none;" d="M262 221L263 222L262 221z"/>
<path style="fill:#a5a5a5; stroke:none;" d="M263 221L264 222L263 221z"/>
<path style="fill:#ffffff; stroke:none;" d="M264 221.472L263 221.861L262.028 222.278L260.25 223.472L259.5 224.25L258.5 226.028L258.25 227L258.083 228L258.028 230L258.111 231L258.306 232L259.111 233.917L260.417 235.5L262.083 236.583L263.028 236.972L265 237.556L266 237.694L267 237.694L269 237.278L270.917 236.361L271.75 235.694L272.5 234.889L273.5 233L273.75 232L273.917 231L274 229L273.972 228L273.889 227L273.278 225.028L271.889 223.25L270.972 222.5L269 221.5L267 221.111L265 221.25L264 221.472z"/>
<path style="fill:#8b8b8b; stroke:none;" d="M269 221L270 222L269 221z"/>
<path style="fill:#484848; stroke:none;" d="M270 221L271 222L270 221z"/>
<path style="fill:#404040; stroke:none;" d="M108 222L109 223L108 222z"/>
<path style="fill:#434343; stroke:none;" d="M119 222L120 223L119 222z"/>
<path style="fill:#9f9f9f; stroke:none;" d="M237.333 222.667L237.333 223L237.667 223.333L237.667 223L237.333 222.667z"/>
<path style="fill:#bfbfbf; stroke:none;" d="M261 222L262 223L261 222z"/>
<path style="fill:#7f7f7f; stroke:none;" d="M271 222L272 223L271 222z"/>
<path style="fill:#afafaf; stroke:none;" d="M289 222L290 223L289 222z"/>
<path style="fill:#b9b9b9; stroke:none;" d="M89 223L90 224L89 223z"/>
<path style="fill:#2b2b2b; stroke:none;" d="M107 223L108 224L107 223z"/>
<path style="fill:#636363; stroke:none;" d="M120 223L121 224L120 223z"/>
<path style="fill:#434343; stroke:none;" d="M141 223L141 226L141.694 225.25L141.694 224.194L141.694 223.75L141 223z"/>
<path style="fill:#6a6a6a; stroke:none;" d="M272 223L273 224L272 223z"/>
<path style="fill:#707070; stroke:none;" d="M289 223L290 224L289 223z"/>
<path style="fill:#606060; stroke:none;" d="M89.3333 224.667L89.3333 225.333L89.6667 225.333L89.6667 224.667L89.3333 224.667z"/>
<path style="fill:#2b2b2b; stroke:none;" d="M106 224L107 225L106 224z"/>
<path style="fill:#d2d2d2; stroke:none;" d="M237.333 224.667L237.333 225L237.667 225.333L237.667 225L237.333 224.667z"/>
<path style="fill:#555555; stroke:none;" d="M273 224L274 225L273 224z"/>
<path style="fill:#202020; stroke:none;" d="M289.333 224.667L289.333 225.333L289.667 225.333L289.667 224.667L289.333 224.667z"/>
<path style="fill:#a8a8a8; stroke:none;" d="M106 225L107 226L106 225z"/>
<path style="fill:#bdbdbd; stroke:none;" d="M121 225L122 226L121 225z"/>
<path style="fill:#989898; stroke:none;" d="M174.667 225.333L175 225.667L175.333 225.667L175 225.333L174.667 225.333z"/>
<path style="fill:#909090; stroke:none;" d="M203.667 225.333L204 225.667L204.333 225.667L204.333 225.333L203.667 225.333z"/>
<path style="fill:#cccccc; stroke:none;" d="M205 225L206 226L205 225z"/>
<path style="fill:#909090; stroke:none;" d="M258 225L259 226L258 225z"/>
<path style="fill:#2d2d2d; stroke:none;" d="M89.3333 226.667L89.3333 227.333L89.6667 227.333L89.6667 226.667L89.3333 226.667z"/>
<path style="fill:#7b7b7b; stroke:none;" d="M122 226L122 229L122.694 228.25L122.694 227.194L122.694 226.75L122 226z"/>
<path style="fill:#6c6c6c; stroke:none;" d="M141 226L141 229L141.694 228.25L141.694 227.194L141.694 226.75L141 226z"/>
<path style="fill:#777777; stroke:none;" d="M172 226L173 227L172 226z"/>
<path style="fill:#000000; stroke:none;" d="M173.111 226.722L171.722 228.111L171.361 229.028L171.222 230L171.361 230.972L172.333 232.667L174.028 233.639L175 233.778L176.889 233.278L178.278 231.889L178.639 230.972L178.778 230L178.639 229.028L177.667 227.333L175.972 226.361L175 226.222L173.111 226.722z"/>
<path style="fill:#5b5b5b; stroke:none;" d="M177 226L178 227L177 226z"/>
<path style="fill:#8d8d8d; stroke:none;" d="M201 226L202 227L201 226z"/>
<path style="fill:#000000; stroke:none;" d="M202.111 226.722L200.722 228.111L200.361 229.028L200.222 230L200.361 230.972L201.333 232.667L203.028 233.639L204 233.778L205.889 233.278L207.278 231.889L207.639 230.972L207.778 230L207.639 229.028L206.667 227.333L204.972 226.361L204 226.222L202.111 226.722z"/>
<path style="fill:#363636; stroke:none;" d="M206 226L207 227L206 226z"/>
<path style="fill:#d2d2d2; stroke:none;" d="M207 226L208 227L207 226z"/>
<path style="fill:#464646; stroke:none;" d="M274 226L275 227L274 226z"/>
<path style="fill:#636363; stroke:none;" d="M105 227L105 232L105.722 231.222L105.75 230.694L105.917 229.917L105.75 228.306L105.722 227.778L105 227z"/>
<path style="fill:#848484; stroke:none;" d="M171 227L172 228L171 227z"/>
<path style="fill:#4d4d4d; stroke:none;" d="M178 227L179 228L178 227z"/>
<path style="fill:#a8a8a8; stroke:none;" d="M200 227L201 228L200 227z"/>
<path style="fill:#2c2c2c; stroke:none;" d="M207 227L208 228L207 227z"/>
<path style="fill:#5e5e5e; stroke:none;" d="M257 227L257 231L257.722 230.222L257.722 229.722L257.889 229L257.722 227.778L257 227z"/>
<path style="fill:#a3a3a3; stroke:none;" d="M274 227L274 232L274.722 231.222L274.75 230.694L274.917 229.917L274.75 228.306L274.722 227.778L274 227z"/>
<path style="fill:#d0d0d0; stroke:none;" d="M179 228L180 229L179 228z"/>
<path style="fill:#aaaaaa; stroke:none;" d="M208 228L209 229L208 228z"/>
<path style="fill:#c3c3c3; stroke:none;" d="M237 228L237 231L237.694 230.25L237.694 229.194L237.694 228.75L237 228z"/>
<path style="fill:#c6c6c6; stroke:none;" d="M290 228L290 231L290.694 230.25L290.694 229.194L290.694 228.75L290 228z"/>
<path style="fill:#9b9b9b; stroke:none;" d="M122 229L122 232L122.694 231.25L122.694 230.194L122.694 229.75L122 229z"/>
<path style="fill:#202020; stroke:none;" d="M141.333 229.667L141.333 230L141.667 230.333L141.667 230L141.333 229.667z"/>
<path style="fill:#c7c7c7; stroke:none;" d="M170.333 229.667L170.333 230L170.667 230.333L170.667 230L170.333 229.667z"/>
<path style="fill:#929292; stroke:none;" d="M179.333 229.667L179.333 230.333L179.667 230.333L179.667 230L179.333 229.667z"/>
<path style="fill:#6a6a6a; stroke:none;" d="M208.333 229.667L208.333 230L208.667 230.333L208.667 230L208.333 229.667z"/>
<path style="fill:#393939; stroke:none;" d="M89.3333 230.667L89.3333 231.333L89.6667 231.333L89.6667 230.667L89.3333 230.667z"/>
<path style="fill:#b3b3b3; stroke:none;" d="M208 231L209 232L208 231z"/>
<path style="fill:#8d8d8d; stroke:none;" d="M237 231L238 232L237 231z"/>
<path style="fill:#6c6c6c; stroke:none;" d="M89 232L89 235L89.6944 234.25L89.6944 233.194L89.6944 232.75L89 232z"/>
<path style="fill:#4e4e4e; stroke:none;" d="M122 232L123 233L122 232z"/>
<path style="fill:#cdcdcd; stroke:none;" d="M142 232L143 233L142 232z"/>
<path style="fill:#929292; stroke:none;" d="M171 232L172 233L171 232z"/>
<path style="fill:#656565; stroke:none;" d="M178 232L179 233L178 232z"/>
<path style="fill:#b5b5b5; stroke:none;" d="M200 232L201 233L200 232z"/>
<path style="fill:#3c3c3c; stroke:none;" d="M207 232L208 233L207 232z"/>
<path style="fill:#575757; stroke:none;" d="M237 232L238 233L237 232z"/>
<path style="fill:#404040; stroke:none;" d="M274 232L275 233L274 232z"/>
<path style="fill:#969696; stroke:none;" d="M106 233L107 234L106 233z"/>
<path style="fill:#989898; stroke:none;" d="M121 233L122 234L121 233z"/>
<path style="fill:#8a8a8a; stroke:none;" d="M142 233L143 234L142 233z"/>
<path style="fill:#8e8e8e; stroke:none;" d="M172 233L173 234L172 233z"/>
<path style="fill:#727272; stroke:none;" d="M177 233L178 234L177 233z"/>
<path style="fill:#858585; stroke:none;" d="M189.667 233.333L190 233.667L190.333 233.667L190 233.333L189.667 233.333z"/>
<path style="fill:#a4a4a4; stroke:none;" d="M201 233L202 234L201 233z"/>
<path style="fill:#5e5e5e; stroke:none;" d="M206 233L207 234L206 233z"/>
<path style="fill:#6b6b6b; stroke:none;" d="M258 233L259 234L258 233z"/>
<path style="fill:#cbcbcb; stroke:none;" d="M273 233L274 234L273 233z"/>
<path style="fill:#505050; stroke:none;" d="M289.333 233.667L289.333 234.333L289.667 234.333L289.667 233.667L289.333 233.667z"/>
<path style="fill:#464646; stroke:none;" d="M142 234L143 235L142 234z"/>
<path style="fill:#b1b1b1; stroke:none;" d="M174.667 234.333L175 234.667L175.333 234.667L175 234.333L174.667 234.333z"/>
<path style="fill:#000000; stroke:none;" d="M189 234L188.5 235.5L188.167 236.056L187.75 237.056L187.222 238L186.25 239.944L185.833 240.944L185.5 241.5L185 243L187.056 243L188.056 243L189 243L191 243.083L191.944 243.222L192.944 243.417L195 244L194.722 242.5L194.139 240.944L193.75 240L193.222 239L192.778 238L192.25 237.056L191.833 236.056L191.5 235.5L191 234L189 234z"/>
<path style="fill:#aaaaaa; stroke:none;" d="M203.667 234.333L204 234.667L204.333 234.667L204.333 234.333L203.667 234.333z"/>
<path style="fill:#acacac; stroke:none;" d="M236 234L237 235L236 234z"/>
<path style="fill:#aaaaaa; stroke:none;" d="M259 234L260 235L259 234z"/>
<path style="fill:#373737; stroke:none;" d="M273 234L274 235L273 234z"/>
<path style="fill:#323232; stroke:none;" d="M120 235L121 236L120 235z"/>
<path style="fill:#5a5a5a; stroke:none;" d="M188 235L189 236L188 235z"/>
<path style="fill:#8c8c8c; stroke:none;" d="M191 235L192 236L191 235z"/>
<path style="fill:#606060; stroke:none;" d="M236 235L237 236L236 235z"/>
<path style="fill:#626262; stroke:none;" d="M272 235L273 236L272 235z"/>
<path style="fill:#8f8f8f; stroke:none;" d="M289 235L290 236L289 235z"/>
<path style="fill:#373737; stroke:none;" d="M90 236L91 237L90 236z"/>
<path style="fill:#c6c6c6; stroke:none;" d="M109 236L110 237L109 236M118 236L119 237L118 236z"/>
<path style="fill:#959595; stroke:none;" d="M143 236L144 237L143 236z"/>
<path style="fill:#bbbbbb; stroke:none;" d="M187 236L188 237L187 236z"/>
<path style="fill:#a7a7a7; stroke:none;" d="M261 236L262 237L261 236z"/>
<path style="fill:#626262; stroke:none;" d="M271 236L272 237L271 236z"/>
<path style="fill:#cfcfcf; stroke:none;" d="M289 236L290 237L289 236z"/>
<path style="fill:#7f7f7f; stroke:none;" d="M90 237L91 238L90 237z"/>
<path style="fill:#434343; stroke:none;" d="M110 237L111 238L110 237z"/>
<path style="fill:#8f8f8f; stroke:none;" d="M111 237L112 238L111 237z"/>
<path style="fill:#eaeaea; stroke:none;" d="M112 237L112.778 237.722L113.25 237.75L114.056 237.944L116 238L115.222 237.278L114.75 237.25L113.944 237.056L112 237z"/>
<path style="fill:#7f7f7f; stroke:none;" d="M116.667 237.333L117 237.667L117.333 237.667L117 237.333L116.667 237.333z"/>
<path style="fill:#505050; stroke:none;" d="M187 237L188 238L187 237z"/>
<path style="fill:#858585; stroke:none;" d="M192 237L193 238L192 237z"/>
<path style="fill:#737373; stroke:none;" d="M235 237L236 238L235 237z"/>
<path style="fill:#616161; stroke:none;" d="M262 237L263 238L262 237z"/>
<path style="fill:#bfbfbf; stroke:none;" d="M263.667 237.333L264 237.667L264.333 237.667L264 237.333L263.667 237.333z"/>
<path style="fill:#a7a7a7; stroke:none;" d="M268 237L269 238L268 237z"/>
<path style="fill:#535353; stroke:none;" d="M269 237L270 238L269 237z"/>
<path style="fill:#c8c8c8; stroke:none;" d="M90 238L91 239L90 238z"/>
<path style="fill:#7c7c7c; stroke:none;" d="M144 238L145 239L144 238z"/>
<path style="fill:#c8c8c8; stroke:none;" d="M186 238L187 239L186 238z"/>
<path style="fill:#cacaca; stroke:none;" d="M234 238L235 239L234 238z"/>
<path style="fill:#606060; stroke:none;" d="M288 238L289 239L288 238z"/>
<path style="fill:#505050; stroke:none;" d="M91 239L92 240L91 239z"/>
<path style="fill:#d3d3d3; stroke:none;" d="M145 239L146 240L145 239z"/>
<path style="fill:#575757; stroke:none;" d="M186 239L187 240L186 239z"/>
<path style="fill:#777777; stroke:none;" d="M193 239L194 240L193 239z"/>
<path style="fill:#5a5a5a; stroke:none;" d="M234 239L235 240L234 239z"/>
<path style="fill:#b9b9b9; stroke:none;" d="M288 239L289 240L288 239z"/>
<path style="fill:#bbbbbb; stroke:none;" d="M91 240L92 241L91 240z"/>
<path style="fill:#595959; stroke:none;" d="M145 240L146 241L145 240z"/>
<path style="fill:#a4a4a4; stroke:none;" d="M185 240L186 241L185 240z"/>
<path style="fill:#acacac; stroke:none;" d="M233 240L234 241L233 240z"/>
<path style="fill:#686868; stroke:none;" d="M287 240L288 241L287 240z"/>
<path style="fill:#5c5c5c; stroke:none;" d="M92 241L93 242L92 241z"/>
<path style="fill:#717171; stroke:none;" d="M146 241L147 242L146 241z"/>
<path style="fill:#323232; stroke:none;" d="M185 241L186 242L185 241z"/>
<path style="fill:#545454; stroke:none;" d="M194 241L195 242L194 241z"/>
<path style="fill:#c7c7c7; stroke:none;" d="M92 242L93 243L92 242z"/>
<path style="fill:#9d9d9d; stroke:none;" d="M147 242L148 243L147 242z"/>
<path style="fill:#7d7d7d; stroke:none;" d="M184 242L185 243L184 242z"/>
<path style="fill:#c9c9c9; stroke:none;" d="M195 242L196 243L195 242z"/>
<path style="fill:#2d2d2d; stroke:none;" d="M232 242L233 243L232 242z"/>
<path style="fill:#8b8b8b; stroke:none;" d="M286 242L287 243L286 242z"/>
<path style="fill:#7d7d7d; stroke:none;" d="M93 243L94 244L93 243z"/>
<path style="fill:#c7c7c7; stroke:none;" d="M183 243L184 244L183 243z"/>
<path style="fill:#404040; stroke:none;" d="M184 243L184.778 243.722L185.306 243.75L186.111 243.944L187.028 243.972L187.944 244L188.944 244L191 244L190.222 243.278L189.694 243.25L188.889 243.056L187.972 243.028L187.056 243L186.056 243L184 243z"/>
<path style="fill:#212121; stroke:none;" d="M191 243L191.722 243.722L192.25 243.75L194 244L193.278 243.278L192.75 243.25L191 243z"/>
<path style="fill:#414141; stroke:none;" d="M195 243L196 244L195 243z"/>
<path style="fill:#555555; stroke:none;" d="M231 243L232 244L231 243z"/>
<path style="fill:#4d4d4d; stroke:none;" d="M285 243L286 244L285 243z"/>
<path style="fill:#717171; stroke:none;" d="M94 244L95 245L94 244z"/>
<path style="fill:#6d6d6d; stroke:none;" d="M230 244L231 245L230 244z"/>
<path style="fill:#474747; stroke:none;" d="M95 245L96 246L95 245z"/>
<path style="fill:#a8a8a8; stroke:none;" d="M150 245L151 246L150 245z"/>
<path style="fill:#494949; stroke:none;" d="M229 245L230 246L229 245z"/>
<path style="fill:#d0d0d0; stroke:none;" d="M284 245L285 246L284 245z"/>
<path style="fill:#767676; stroke:none;" d="M151 246L152 247L151 246z"/>
<path style="fill:#bbbbbb; stroke:none;" d="M227 246L228 247L227 246z"/>
<path style="fill:#a7a7a7; stroke:none;" d="M283 246L284 247L283 246z"/>
<path style="fill:#333333; stroke:none;" d="M152 247L153 248L152 247z"/>
<path style="fill:#999999; stroke:none;" d="M153 247L154 248L153 247z"/>
<path style="fill:#707070; stroke:none;" d="M226 247L227 248L226 247z"/>
<path style="fill:#888888; stroke:none;" d="M282 247L283 248L282 247z"/>
<path style="fill:#404040; stroke:none;" d="M98 248L99 249L98 248z"/>
<path style="fill:#333333; stroke:none;" d="M154 248L155 249L154 248z"/>
<path style="fill:#999999; stroke:none;" d="M155 248L156 249L155 248z"/>
<path style="fill:#898989; stroke:none;" d="M224 248L225 249L224 248z"/>
<path style="fill:#9a9a9a; stroke:none;" d="M281 248L282 249L281 248z"/>
<path style="fill:#646464; stroke:none;" d="M99 249L100 250L99 249z"/>
<path style="fill:#686868; stroke:none;" d="M157 249L158 250L157 249z"/>
<path style="fill:#b4b4b4; stroke:none;" d="M158 249L159 250L158 249z"/>
<path style="fill:#b0b0b0; stroke:none;" d="M221 249L222 250L221 249z"/>
<path style="fill:#747474; stroke:none;" d="M222 249L223 250L222 249z"/>
<path style="fill:#323232; stroke:none;" d="M223 249L224 250L223 249z"/>
<path style="fill:#adadad; stroke:none;" d="M280 249L281 250L280 249z"/>
<path style="fill:#8b8b8b; stroke:none;" d="M293 249L293.722 249.722L294.25 249.75L296 250L295.278 249.278L294.75 249.25L293 249z"/>
<path style="fill:#4e4e4e; stroke:none;" d="M296 249L296.722 249.722L297.25 249.75L299 250L298.278 249.278L297.75 249.25L296 249z"/>
<path style="fill:#a3a3a3; stroke:none;" d="M299 249L299.722 249.722L300.25 249.75L302 250L301.278 249.278L300.75 249.25L299 249z"/>
<path style="fill:#979797; stroke:none;" d="M100 250L101 251L100 250z"/>
<path style="fill:#2c2c2c; stroke:none;" d="M101 250L102 251L101 250z"/>
<path style="fill:#939393; stroke:none;" d="M160 250L160.722 250.722L161.25 250.75L163 251L162.278 250.278L161.75 250.25L160 250z"/>
<path style="fill:#dfdfdf; stroke:none;" d="M163.667 250.333L164 250.667L164.333 250.667L164 250.333L163.667 250.333z"/>
<path style="fill:#e0e0e0; stroke:none;" d="M207 252L208.444 251.583L209.556 251.25L211 251L210.222 250.278L209.722 250.278L209 250.167L207.722 250.667L207.361 250.861L207 252z"/>
<path style="fill:#b9b9b9; stroke:none;" d="M215.667 250.333L216 250.667L216.333 250.667L216.333 250.333L215.667 250.333z"/>
<path style="fill:#868686; stroke:none;" d="M217.667 250.333L218 250.667L218.333 250.667L218 250.333L217.667 250.333z"/>
<path style="fill:#474747; stroke:none;" d="M219 250L220 251L219 250z"/>
<path style="fill:#626262; stroke:none;" d="M278 250L279 251L278 250z"/>
<path style="fill:#d1d1d1; stroke:none;" d="M279 250L280 251L279 250z"/>
<path style="fill:#bebebe; stroke:none;" d="M289 250L290 251L289 250z"/>
<path style="fill:#7c7c7c; stroke:none;" d="M290 250L291 251L290 250z"/>
<path style="fill:#2b2b2b; stroke:none;" d="M291 250L292 251L291 250z"/>
<path style="fill:#6a6a6a; stroke:none;" d="M303 250L304 251L303 250z"/>
<path style="fill:#adadad; stroke:none;" d="M304 250L305 251L304 250z"/>
<path style="fill:#8b8b8b; stroke:none;" d="M102 251L103 252L102 251z"/>
<path style="fill:#828282; stroke:none;" d="M171 251L172 252L171 251z"/>
<path style="fill:#565656; stroke:none;" d="M276 251L277 252L276 251z"/>
<path style="fill:#c1c1c1; stroke:none;" d="M277 251L278 252L277 251z"/>
<path style="fill:#aaaaaa; stroke:none;" d="M287 251L288 252L287 251z"/>
<path style="fill:#393939; stroke:none;" d="M288 251L289 252L288 251z"/>
<path style="fill:#8e8e8e; stroke:none;" d="M306 251L307 252L306 251z"/>
<path style="fill:#808080; stroke:none;" d="M104 252L105 253L104 252z"/>
<path style="fill:#3d3d3d; stroke:none;" d="M105 252L106 253L105 252z"/>
<path style="fill:#868686; stroke:none;" d="M123 252L124 253L123 252z"/>
<path style="fill:#4f4f4f; stroke:none;" d="M125 252L126 253L125 252z"/>
<path style="fill:#8b8b8b; stroke:none;" d="M208 252L209 253L208 252z"/>
<path style="fill:#8e8e8e; stroke:none;" d="M255 252L256 253L255 252z"/>
<path style="fill:#5e5e5e; stroke:none;" d="M274 252L275 253L274 252z"/>
<path style="fill:#b5b5b5; stroke:none;" d="M275 252L276 253L275 252z"/>
<path style="fill:#c6c6c6; stroke:none;" d="M285 252L286 253L285 252z"/>
<path style="fill:#555555; stroke:none;" d="M286 252L287 253L286 252z"/>
<path style="fill:#393939; stroke:none;" d="M307 252L308 253L307 252z"/>
<path style="fill:#aaaaaa; stroke:none;" d="M308 252L309 253L308 252z"/>
<path style="fill:#959595; stroke:none;" d="M107 253L108 254L107 253z"/>
<path style="fill:#404040; stroke:none;" d="M108 253L109 254L108 253z"/>
<path style="fill:#373737; stroke:none;" d="M119 253L120 254L119 253z"/>
<path style="fill:#838383; stroke:none;" d="M120 253L121 254L120 253z"/>
<path style="fill:#8e8e8e; stroke:none;" d="M170 253L171 254L170 253z"/>
<path style="fill:#404040; stroke:none;" d="M209 253L210 254L209 253z"/>
<path style="fill:#8a8a8a; stroke:none;" d="M253 253L254 254L253 253z"/>
<path style="fill:#cccccc; stroke:none;" d="M257 253L258 254L257 253z"/>
<path style="fill:#666666; stroke:none;" d="M258 253L259 254L258 253z"/>
<path style="fill:#6a6a6a; stroke:none;" d="M271 253L272 254L271 253z"/>
<path style="fill:#b7b7b7; stroke:none;" d="M272 253L273 254L272 253z"/>
<path style="fill:#838383; stroke:none;" d="M284 253L285 254L284 253z"/>
<path style="fill:#626262; stroke:none;" d="M309 253L310 254L309 253z"/>
<path style="fill:#c6c6c6; stroke:none;" d="M110.667 254.333L110.667 254.667L111.333 254.667L111 254.333L110.667 254.333z"/>
<path style="fill:#939393; stroke:none;" d="M112 254L112.778 254.722L113.25 254.75L114.056 254.944L116 255L115.222 254.278L114.75 254.25L113.944 254.056L112 254z"/>
<path style="fill:#7d7d7d; stroke:none;" d="M126 254L127 255L126 254z"/>
<path style="fill:#343434; stroke:none;" d="M169 254L170 255L169 254z"/>
<path style="fill:#b8b8b8; stroke:none;" d="M180 254L181 255L180 254z"/>
<path style="fill:#959595; stroke:none;" d="M181.667 254.333L182 254.667L182.333 254.667L182 254.333L181.667 254.333z"/>
<path style="fill:#b3b3b3; stroke:none;" d="M209 254L210 255L209 254z"/>
<path style="fill:#2f2f2f; stroke:none;" d="M252 254L253 255L252 254z"/>
<path style="fill:#bcbcbc; stroke:none;" d="M261 254L261.722 254.722L262.25 254.75L264 255L263.278 254.278L262.75 254.25L261 254z"/>
<path style="fill:#868686; stroke:none;" d="M264 254L264.722 254.722L265.25 254.75L267 255L266.278 254.278L265.75 254.25L264 254z"/>
<path style="fill:#d2d2d2; stroke:none;" d="M267.667 254.333L268 254.667L268.333 254.667L268 254.333L267.667 254.333z"/>
<path style="fill:#494949; stroke:none;" d="M283 254L284 255L283 254z"/>
<path style="fill:#363636; stroke:none;" d="M127 255L128 256L127 255z"/>
<path style="fill:#a8a8a8; stroke:none;" d="M169 255L170 256L169 255z"/>
<path style="fill:#a5a5a5; stroke:none;" d="M178 255L179 256L178 255z"/>
<path style="fill:#000000; stroke:none;" d="M179.111 255.722L177.722 257.111L177.333 258.028L177.139 259L177.139 260L177.722 261.917L179.111 263.5L181 264.417L182.972 264.417L183.917 264.028L185.5 262.75L186.056 261.917L186.639 260L186.583 259L185.667 257.111L183.972 255.722L183 255.333L182 255.139L181 255.139L179.111 255.722z"/>
<path style="fill:#5c5c5c; stroke:none;" d="M184 255L185 256L184 255z"/>
<path style="fill:#636363; stroke:none;" d="M210 255L211 256L210 255z"/>
<path style="fill:#a1a1a1; stroke:none;" d="M252 255L253 256L252 255z"/>
<path style="fill:#cbcbcb; stroke:none;" d="M312 255L313 256L312 255z"/>
<path style="fill:#b0b0b0; stroke:none;" d="M127 256L128 257L127 256z"/>
<path style="fill:#525252; stroke:none;" d="M168 256L169 257L168 256z"/>
<path style="fill:#a9a9a9; stroke:none;" d="M177 256L178 257L177 256z"/>
<path style="fill:#313131; stroke:none;" d="M185 256L186 257L185 256z"/>
<path style="fill:#c1c1c1; stroke:none;" d="M210 256L211 257L210 256z"/>
<path style="fill:#545454; stroke:none;" d="M251 256L252 257L251 256z"/>
<path style="fill:#464646; stroke:none;" d="M281 256L282 257L281 256z"/>
<path style="fill:#949494; stroke:none;" d="M128 257L129 258L128 257z"/>
<path style="fill:#bfbfbf; stroke:none;" d="M168 257L169 258L168 257z"/>
<path style="fill:#959595; stroke:none;" d="M186 257L187 258L186 257z"/>
<path style="fill:#464646; stroke:none;" d="M211 257L212 258L211 257z"/>
<path style="fill:#474747; stroke:none;" d="M250 257L251 258L250 257z"/>
<path style="fill:#8a8a8a; stroke:none;" d="M280 257L281 258L280 257z"/>
<path style="fill:#575757; stroke:none;" d="M313 257L314 258L313 257z"/>
<path style="fill:#767676; stroke:none;" d="M129 258L130 259L129 258z"/>
<path style="fill:#646464; stroke:none;" d="M167 258L168 259L167 258z"/>
<path style="fill:#c2c2c2; stroke:none;" d="M176 258L177 259L176 258z"/>
<path style="fill:#9e9e9e; stroke:none;" d="M211 258L212 259L211 258z"/>
<path style="fill:#a5a5a5; stroke:none;" d="M279 258L280 259L279 258z"/>
<path style="fill:#797979; stroke:none;" d="M314 258L315 259L314 258z"/>
<path style="fill:#bababa; stroke:none;" d="M167 259L168 260L167 259z"/>
<path style="fill:#a6a6a6; stroke:none;" d="M176.333 259.667L176.333 260L176.667 260.333L176.667 259.667L176.333 259.667z"/>
<path style="fill:#2b2b2b; stroke:none;" d="M279 259L280 260L279 259z"/>
<path style="fill:#bfbfbf; stroke:none;" d="M315 259L316 260L315 259z"/>
<path style="fill:#313131; stroke:none;" d="M166 260L167 261L166 260z"/>
<path style="fill:#676767; stroke:none;" d="M212 260L213 261L212 260z"/>
<path style="fill:#c1c1c1; stroke:none;" d="M248 260L249 261L248 260z"/>
<path style="fill:#7f7f7f; stroke:none;" d="M278 260L279 261L278 260z"/>
<path style="fill:#4e4e4e; stroke:none;" d="M315 260L316 261L315 260z"/>
<path style="fill:#373737; stroke:none;" d="M132 261L133 262L132 261z"/>
<path style="fill:#7f7f7f; stroke:none;" d="M166 261L167 262L166 261z"/>
<path style="fill:#6a6a6a; stroke:none;" d="M186 261L187 262L186 261z"/>
<path style="fill:#b5b5b5; stroke:none;" d="M212 261L213 262L212 261z"/>
<path style="fill:#d3d3d3; stroke:none;" d="M247 261L248 262L247 261z"/>
<path style="fill:#a3a3a3; stroke:none;" d="M316 261L317 262L316 261z"/>
<path style="fill:#5b5b5b; stroke:none;" d="M133 262L134 263L133 262z"/>
<path style="fill:#aaaaaa; stroke:none;" d="M166 262L167 263L166 262z"/>
<path style="fill:#707070; stroke:none;" d="M177 262L178 263L177 262z"/>
<path style="fill:#d4d4d4; stroke:none;" d="M186 262L187 263L186 262z"/>
<path style="fill:#373737; stroke:none;" d="M245 262L246 263L245 262z"/>
<path style="fill:#6d6d6d; stroke:none;" d="M277 262L278 263L277 262z"/>
<path style="fill:#212121; stroke:none;" d="M296.667 262.333L296.667 262.667L297.333 262.667L297 262.333L296.667 262.333z"/>
<path style="fill:#373737; stroke:none;" d="M316 262L317 263L316 262z"/>
<path style="fill:#7f7f7f; stroke:none;" d="M134 263L135 264L134 263z"/>
<path style="fill:#464646; stroke:none;" d="M178 263L179 264L178 263z"/>
<path style="fill:#8b8b8b; stroke:none;" d="M185 263L186 264L185 263z"/>
<path style="fill:#606060; stroke:none;" d="M244 263L245 264L244 263z"/>
<path style="fill:#4d4d4d; stroke:none;" d="M293 263L294 264L293 263z"/>
<path style="fill:#9a9a9a; stroke:none;" d="M294 263L295 264L294 263z"/>
<path style="fill:#a5a5a5; stroke:none;" d="M299 263L300 264L299 263z"/>
<path style="fill:#666666; stroke:none;" d="M300 263L301 264L300 263z"/>
<path style="fill:#cecece; stroke:none;" d="M317 263L318 264L317 263z"/>
<path style="fill:#c4c4c4; stroke:none;" d="M135 264L136 265L135 264z"/>
<path style="fill:#474747; stroke:none;" d="M136 264L137 265L136 264z"/>
<path style="fill:#a9a9a9; stroke:none;" d="M179 264L180 265L179 264z"/>
<path style="fill:#4e4e4e; stroke:none;" d="M180 264L181 265L180 264z"/>
<path style="fill:#737373; stroke:none;" d="M183 264L184 265L183 264z"/>
<path style="fill:#666666; stroke:none;" d="M213 264L213 270L213.722 269.222L213.75 268.694L213.944 267.889L213.944 266.111L213.75 265.306L213.722 264.778L213 264z"/>
<path style="fill:#a4a4a4; stroke:none;" d="M243 264L244 265L243 264z"/>
<path style="fill:#c3c3c3; stroke:none;" d="M276 264L277 265L276 264z"/>
<path style="fill:#b3b3b3; stroke:none;" d="M292 264L293 265L292 264z"/>
<path style="fill:#cccccc; stroke:none;" d="M301 264L302 265L301 264z"/>
<path style="fill:#838383; stroke:none;" d="M317 264L318 265L317 264z"/>
<path style="fill:#8b8b8b; stroke:none;" d="M137 265L138 266L137 265z"/>
<path style="fill:#6c6c6c; stroke:none;" d="M241 265L242 266L241 265z"/>
<path style="fill:#787878; stroke:none;" d="M276 265L277 266L276 265z"/>
<path style="fill:#383838; stroke:none;" d="M317 265L318 266L317 265z"/>
<path style="fill:#cfcfcf; stroke:none;" d="M138 266L139 267L138 266z"/>
<path style="fill:#6a6a6a; stroke:none;" d="M139 266L140 267L139 266z"/>
<path style="fill:#404040; stroke:none;" d="M165.333 266.667L165.333 267L165.667 267.333L165.667 267L165.333 266.667z"/>
<path style="fill:#4d4d4d; stroke:none;" d="M239 266L240 267L239 266z"/>
<path style="fill:#b3b3b3; stroke:none;" d="M240 266L241 267L240 266z"/>
<path style="fill:#1a1a1a; stroke:none;" d="M276.333 266.667L276.333 267.333L276.667 267.333L276.667 266.667L276.333 266.667z"/>
<path style="fill:#767676; stroke:none;" d="M290 266L291 267L290 266z"/>
<path style="fill:#898989; stroke:none;" d="M303 266L304 267L303 266z"/>
<path style="fill:#757575; stroke:none;" d="M141 267L142 268L141 267z"/>
<path style="fill:#4d4d4d; stroke:none;" d="M237 267L238 268L237 267z"/>
<path style="fill:#b3b3b3; stroke:none;" d="M238 267L239 268L238 267z"/>
<path style="fill:#454545; stroke:none;" d="M289 267L290 268L289 267z"/>
<path style="fill:#474747; stroke:none;" d="M304 267L305 268L304 267z"/>
<path style="fill:#bcbcbc; stroke:none;" d="M318 267L318 270L318.694 269.25L318.694 268.194L318.694 267.75L318 267z"/>
<path style="fill:#808080; stroke:none;" d="M143 268L144 269L143 268z"/>
<path style="fill:#2b2b2b; stroke:none;" d="M144 268L145 269L144 268z"/>
<path style="fill:#575757; stroke:none;" d="M235 268L236 269L235 268z"/>
<path style="fill:#b3b3b3; stroke:none;" d="M236 268L237 269L236 268z"/>
<path style="fill:#989898; stroke:none;" d="M289.333 268.667L289.333 269.333L289.667 269.333L289.667 268.667L289.333 268.667z"/>
<path style="fill:#858585; stroke:none;" d="M304 268L305 269L304 268z"/>
<path style="fill:#aaaaaa; stroke:none;" d="M145 269L146 270L145 269z"/>
<path style="fill:#555555; stroke:none;" d="M146 269L147 270L146 269z"/>
<path style="fill:#383838; stroke:none;" d="M232 269L233 270L232 269z"/>
<path style="fill:#8a8a8a; stroke:none;" d="M233 269L234 270L233 269z"/>
<path style="fill:#bfbfbf; stroke:none;" d="M275 269L275 328L275.722 327.222L275.75 326.694L275.944 325.889L275.972 324.972L276 324L276 322L276 321L276 319L276 314L276 283L276 278L276 276L276 275L276 273L275.972 272.028L275.944 271.111L275.75 270.306L275.722 269.778L275 269z"/>
<path style="fill:#c2c2c2; stroke:none;" d="M304 269L305 270L304 269z"/>
<path style="fill:#808080; stroke:none;" d="M148 270L149 271L148 270z"/>
<path style="fill:#454545; stroke:none;" d="M149 270L150 271L149 270z"/>
<path style="fill:#1a1a1a; stroke:none;" d="M213.333 270.667L213.333 271L213.667 271.333L213.667 271L213.333 270.667z"/>
<path style="fill:#333333; stroke:none;" d="M229 270L230 271L229 270z"/>
<path style="fill:#707070; stroke:none;" d="M230 270L231 271L230 270z"/>
<path style="fill:#bdbdbd; stroke:none;" d="M231 270L232 271L231 270z"/>
<path style="fill:#bfbfbf; stroke:none;" d="M289 270L289 328L289.722 327.222L289.75 326.694L289.944 325.889L289.972 324.972L290 324L290 322L290 320L290 315L290 284L290 279L290 277L290 276L290 274L289.972 273.028L289.944 272.111L289.75 271.306L289.722 270.778L289 270z"/>
<path style="fill:#7f7f7f; stroke:none;" d="M318 270L318 288L318.722 287.222L318.75 286.694L318.944 285.889L318.972 284.972L319 283L319 282L319 280L319 277L319 276L319 274L318.972 273.028L318.944 272.111L318.75 271.306L318.722 270.778L318 270z"/>
<path style="fill:#b1b1b1; stroke:none;" d="M151 271L152 272L151 271z"/>
<path style="fill:#6d6d6d; stroke:none;" d="M152 271L153 272L152 271z"/>
<path style="fill:#bfbfbf; stroke:none;" d="M166.333 271.667L166.333 272L166.667 272.333L166.667 272L166.333 271.667z"/>
<path style="fill:#4d4d4d; stroke:none;" d="M226 271L227 272L226 271z"/>
<path style="fill:#999999; stroke:none;" d="M227 271L228 272L227 271z"/>
<path style="fill:#a4a4a4; stroke:none;" d="M155 272L156 273L155 272z"/>
<path style="fill:#404040; stroke:none;" d="M156.667 272.333L157 272.667L157.333 272.667L157 272.333L156.667 272.333z"/>
<path style="fill:#5a5a5a; stroke:none;" d="M221.667 272.333L222 272.667L222.333 272.667L222 272.333L221.667 272.333z"/>
<path style="fill:#8b8b8b; stroke:none;" d="M223 272L224 273L223 272z"/>
<path style="fill:#c5c5c5; stroke:none;" d="M224 272L225 273L224 272z"/>
<path style="fill:#bfbfbf; stroke:none;" d="M159 273L160 274L159 273z"/>
<path style="fill:#6f6f6f; stroke:none;" d="M166 273L167 274L166 273z"/>
<path style="fill:#bcbcbc; stroke:none;" d="M212 273L213 274L212 273z"/>
<path style="fill:#8d8d8d; stroke:none;" d="M219 273L220 274L219 273z"/>
<path style="fill:#383838; stroke:none;" d="M160 274L161 275L160 274z"/>
<path style="fill:#797979; stroke:none;" d="M212 274L213 275L212 274z"/>
<path style="fill:#c4c4c4; stroke:none;" d="M219 274L220 275L219 274z"/>
<path style="fill:#787878; stroke:none;" d="M160 275L161 276L160 275z"/>
<path style="fill:#bcbcbc; stroke:none;" d="M167 275L168 276L167 275z"/>
<path style="fill:#363636; stroke:none;" d="M212 275L213 276L212 275z"/>
<path style="fill:#2e2e2e; stroke:none;" d="M218 275L219 276L218 275z"/>
<path style="fill:#b5b5b5; stroke:none;" d="M160 276L161 277L160 276z"/>
<path style="fill:#707070; stroke:none;" d="M167 276L168 277L167 276z"/>
<path style="fill:#646464; stroke:none;" d="M218 276L219 277L218 276z"/>
<path style="fill:#797979; stroke:none;" d="M211 277L212 278L211 277z"/>
<path style="fill:#383838; stroke:none;" d="M219 277L219.722 277.722L220.25 277.75L222 278L221.278 277.278L220.75 277.25L219 277z"/>
<path style="fill:#8e8e8e; stroke:none;" d="M222.667 277.333L223 277.667L223.333 277.667L223 277.333L222.667 277.333z"/>
<path style="fill:#c5c5c5; stroke:none;" d="M224 277L225 278L224 277z"/>
<path style="fill:#646464; stroke:none;" d="M161 278L162 279L161 278z"/>
<path style="fill:#6d6d6d; stroke:none;" d="M168 278L169 279L168 278z"/>
<path style="fill:#d0d0d0; stroke:none;" d="M210 278L211 279L210 278z"/>
<path style="fill:#393939; stroke:none;" d="M226 278L227 279L226 278z"/>
<path style="fill:#686868; stroke:none;" d="M227 278L228 279L227 278z"/>
<path style="fill:#a4a4a4; stroke:none;" d="M228 278L229 279L228 278z"/>
<path style="fill:#c6c6c6; stroke:none;" d="M161 279L162 280L161 279z"/>
<path style="fill:#c4c4c4; stroke:none;" d="M169 279L170 280L169 279z"/>
<path style="fill:#606060; stroke:none;" d="M210 279L211 280L210 279z"/>
<path style="fill:#5b5b5b; stroke:none;" d="M230 279L231 280L230 279z"/>
<path style="fill:#a4a4a4; stroke:none;" d="M231 279L232 280L231 279z"/>
<path style="fill:#5a5a5a; stroke:none;" d="M162 280L163 281L162 280z"/>
<path style="fill:#545454; stroke:none;" d="M169 280L170 281L169 280z"/>
<path style="fill:#b7b7b7; stroke:none;" d="M209 280L210 281L209 280z"/>
<path style="fill:#686868; stroke:none;" d="M233 280L234 281L233 280z"/>
<path style="fill:#bbbbbb; stroke:none;" d="M234 280L235 281L234 280M162 281L163 282L162 281z"/>
<path style="fill:#8c8c8c; stroke:none;" d="M170 281L171 282L170 281z"/>
<path style="fill:#2f2f2f; stroke:none;" d="M209 281L210 282L209 281z"/>
<path style="fill:#383838; stroke:none;" d="M235 281L236 282L235 281z"/>
<path style="fill:#8b8b8b; stroke:none;" d="M236 281L237 282L236 281z"/>
<path style="fill:#4f4f4f; stroke:none;" d="M163 282L164 283L163 282z"/>
<path style="fill:#b5b5b5; stroke:none;" d="M171 282L172 283L171 282z"/>
<path style="fill:#3b3b3b; stroke:none;" d="M208 282L209 283L208 282z"/>
<path style="fill:#929292; stroke:none;" d="M238 282L239 283L238 282z"/>
<path style="fill:#c2c2c2; stroke:none;" d="M163 283L164 284L163 283z"/>
<path style="fill:#484848; stroke:none;" d="M207 283L208 284L207 283z"/>
<path style="fill:#3b3b3b; stroke:none;" d="M239 283L240 284L239 283z"/>
<path style="fill:#ababab; stroke:none;" d="M240 283L241 284L240 283z"/>
<path style="fill:#8b8b8b; stroke:none;" d="M164 284L165 285L164 284z"/>
<path style="fill:#353535; stroke:none;" d="M172 284L173 285L172 284z"/>
<path style="fill:#7f7f7f; stroke:none;" d="M206 284L207 285L206 284z"/>
<path style="fill:#606060; stroke:none;" d="M241 284L242 285L241 284z"/>
<path style="fill:#535353; stroke:none;" d="M165 285L166 286L165 285z"/>
<path style="fill:#2f2f2f; stroke:none;" d="M173 285L174 286L173 285z"/>
<path style="fill:#6d6d6d; stroke:none;" d="M205 285L206 286L205 285z"/>
<path style="fill:#9f9f9f; stroke:none;" d="M243 285L244 286L243 285z"/>
<path style="fill:#cbcbcb; stroke:none;" d="M175 286L176 287L175 286z"/>
<path style="fill:#5a5a5a; stroke:none;" d="M204 286L205 287L204 286z"/>
<path style="fill:#606060; stroke:none;" d="M244 286L245 287L244 286z"/>
<path style="fill:#acacac; stroke:none;" d="M166 287L167 288L166 287z"/>
<path style="fill:#989898; stroke:none;" d="M176 287L177 288L176 287z"/>
<path style="fill:#b3b3b3; stroke:none;" d="M202 287L203 288L202 287z"/>
<path style="fill:#383838; stroke:none;" d="M203 287L204 288L203 287z"/>
<path style="fill:#2c2c2c; stroke:none;" d="M245 287L246 288L245 287z"/>
<path style="fill:#b4b4b4; stroke:none;" d="M246 287L247 288L246 287z"/>
<path style="fill:#b7b7b7; stroke:none;" d="M167 288L168 289L167 288z"/>
<path style="fill:#2b2b2b; stroke:none;" d="M177 288L178 289L177 288z"/>
<path style="fill:#8c8c8c; stroke:none;" d="M178 288L179 289L178 288z"/>
<path style="fill:#b3b3b3; stroke:none;" d="M200 288L201 289L200 288z"/>
<path style="fill:#4d4d4d; stroke:none;" d="M201 288L202 289L201 288z"/>
<path style="fill:#838383; stroke:none;" d="M247 288L248 289L247 288z"/>
<path style="fill:#b4b4b4; stroke:none;" d="M318 288L319 289L318 288z"/>
<path style="fill:#c2c2c2; stroke:none;" d="M168 289L169 290L168 289z"/>
<path style="fill:#7f7f7f; stroke:none;" d="M180 289L181 290L180 289z"/>
<path style="fill:#c5c5c5; stroke:none;" d="M181 289L182 290L181 289z"/>
<path style="fill:#a2a2a2; stroke:none;" d="M198 289L199 290L198 289z"/>
<path style="fill:#4d4d4d; stroke:none;" d="M199 289L200 290L199 289z"/>
<path style="fill:#545454; stroke:none;" d="M248 289L249 290L248 289z"/>
<path style="fill:#595959; stroke:none;" d="M305 289L306 290L305 289z"/>
<path style="fill:#cdcdcd; stroke:none;" d="M169 290L170 291L169 290z"/>
<path style="fill:#2f2f2f; stroke:none;" d="M170 290L171 291L170 290z"/>
<path style="fill:#2e2e2e; stroke:none;" d="M182 290L183 291L182 290z"/>
<path style="fill:#787878; stroke:none;" d="M183 290L184 291L183 290z"/>
<path style="fill:#d2d2d2; stroke:none;" d="M184 290L185 291L184 290z"/>
<path style="fill:#a5a5a5; stroke:none;" d="M195 290L196 291L195 290z"/>
<path style="fill:#515151; stroke:none;" d="M196 290L197 291L196 290z"/>
<path style="fill:#464646; stroke:none;" d="M249 290L250 291L249 290z"/>
<path style="fill:#a3a3a3; stroke:none;" d="M305 290L306 291L305 290z"/>
<path style="fill:#707070; stroke:none;" d="M317 290L318 291L317 290z"/>
<path style="fill:#676767; stroke:none;" d="M171 291L172 292L171 291z"/>
<path style="fill:#434343; stroke:none;" d="M186 291L186.722 291.722L187.25 291.75L189 292L188.278 291.278L187.75 291.25L186 291z"/>
<path style="fill:#6b6b6b; stroke:none;" d="M189 291L189.722 291.722L190.25 291.75L192 292L191.278 291.278L190.75 291.25L189 291z"/>
<path style="fill:#1b1b1b; stroke:none;" d="M192.667 291.333L192.667 291.667L193.333 291.667L193 291.333L192.667 291.333z"/>
<path style="fill:#393939; stroke:none;" d="M250 291L251 292L250 291z"/>
<path style="fill:#6d6d6d; stroke:none;" d="M306 291L307 292L306 291z"/>
<path style="fill:#9e9e9e; stroke:none;" d="M172 292L173 293L172 292z"/>
<path style="fill:#3d3d3d; stroke:none;" d="M251 292L252 293L251 292z"/>
<path style="fill:#7f7f7f; stroke:none;" d="M316 292L317 293L316 292z"/>
<path style="fill:#505050; stroke:none;" d="M174 293L175 294L174 293z"/>
<path style="fill:#757575; stroke:none;" d="M252 293L253 294L252 293z"/>
<path style="fill:#7f7f7f; stroke:none;" d="M308 293L309 294L308 293z"/>
<path style="fill:#313131; stroke:none;" d="M309 293L310 294L309 293z"/>
<path style="fill:#636363; stroke:none;" d="M314 293L315 294L314 293z"/>
<path style="fill:#b3b3b3; stroke:none;" d="M175 294L176 295L175 294z"/>
<path style="fill:#4d4d4d; stroke:none;" d="M176 294L177 295L176 294z"/>
<path style="fill:#989898; stroke:none;" d="M253 294L254 295L253 294z"/>
<path style="fill:#e4e4e4; stroke:none;" d="M311.667 294.333L312 294.667L312.333 294.667L312.333 294.333L311.667 294.333z"/>
<path style="fill:#b3b3b3; stroke:none;" d="M177 295L178 296L177 295z"/>
<path style="fill:#4d4d4d; stroke:none;" d="M178 295L179 296L178 295z"/>
<path style="fill:#a5a5a5; stroke:none;" d="M254 295L255 296L254 295z"/>
<path style="fill:#d1d1d1; stroke:none;" d="M179 296L180 297L179 296z"/>
<path style="fill:#949494; stroke:none;" d="M180 296L181 297L180 296z"/>
<path style="fill:#535353; stroke:none;" d="M181 296L182 297L181 296z"/>
<path style="fill:#c7c7c7; stroke:none;" d="M255 296L256 297L255 296z"/>
<path style="fill:#b9b9b9; stroke:none;" d="M183 297L184 298L183 297z"/>
<path style="fill:#636363; stroke:none;" d="M184.667 297.333L184.667 297.667L185.333 297.667L185.333 297.333L184.667 297.333z"/>
<path style="fill:#343434; stroke:none;" d="M186 297L186.722 297.722L187.25 297.75L189 298L188.278 297.278L187.75 297.25L186 297z"/>
<path style="fill:#3e3e3e; stroke:none;" d="M255 297L256 298L255 297z"/>
<path style="fill:#404040; stroke:none;" d="M190 298L190 343L190.722 342.222L190.75 341.694L190.944 340.889L190.972 339.972L191 338L191 336L191 332L191 309L191 305L191 303L190.972 301.028L190.944 300.111L190.75 299.306L190.722 298.778L190 298z"/>
<path style="fill:#707070; stroke:none;" d="M256 298L257 299L256 298z"/>
<path style="fill:#a2a2a2; stroke:none;" d="M257 299L258 300L257 299z"/>
<path style="fill:#2c2c2c; stroke:none;" d="M257 300L258 301L257 300z"/>
<path style="fill:#838383; stroke:none;" d="M258 301L259 302L258 301z"/>
<path style="fill:#6a6a6a; stroke:none;" d="M259 303L260 304L259 303z"/>
<path style="fill:#d1d1d1; stroke:none;" d="M260 304L261 305L260 304z"/>
<path style="fill:#707070; stroke:none;" d="M260 305L261 306L260 305z"/>
<path style="fill:#7c7c7c; stroke:none;" d="M261 307L262 308L261 307z"/>
<path style="fill:#b6b6b6; stroke:none;" d="M262 309L263 310L262 309z"/>
<path style="fill:#6d6d6d; stroke:none;" d="M262 310L263 311L262 310z"/>
<path style="fill:#b7b7b7; stroke:none;" d="M263 312L264 313L263 312z"/>
<path style="fill:#767676; stroke:none;" d="M263 313L264 314L263 313z"/>
<path style="fill:#343434; stroke:none;" d="M263 314L264 315L263 314z"/>
<path style="fill:#a1a1a1; stroke:none;" d="M264 316L265 317L264 316z"/>
<path style="fill:#434343; stroke:none;" d="M264.333 317.667L264.333 318.333L264.667 318.333L264.667 317.667L264.333 317.667z"/>
<path style="fill:#b6b6b6; stroke:none;" d="M265 321L265 324L265.694 323.25L265.694 322.194L265.694 321.75L265 321z"/>
<path style="fill:#7f7f7f; stroke:none;" d="M265 324L265 333L265.722 332.222L265.75 331.694L265.944 330.889L265.972 329.972L266 328L265.944 326.111L265.75 325.306L265.722 324.778L265 324M275 328L276 329L275 328z"/>
<path style="fill:#474747; stroke:none;" d="M275 329L276 330L275 329z"/>
<path style="fill:#7f7f7f; stroke:none;" d="M274 330L275 331L274 330z"/>
<path style="fill:#515151; stroke:none;" d="M288 331L289 332L288 331z"/>
<path style="fill:#d1d1d1; stroke:none;" d="M271 332L272 333L271 332z"/>
<path style="fill:#7f7f7f; stroke:none;" d="M272 332L273 333L272 332z"/>
<path style="fill:#959595; stroke:none;" d="M288 332L289 333L288 332z"/>
<path style="fill:#404040; stroke:none;" d="M265 333L265.778 333.722L266.306 333.75L267.056 333.944L267.972 333.972L270 334L269.222 333.278L268.694 333.25L267.944 333.056L267.028 333.028L265 333z"/>
<path style="fill:#373737; stroke:none;" d="M287 334L288 335L287 334z"/>
<path style="fill:#9e9e9e; stroke:none;" d="M287 335L288 336L287 335z"/>
<path style="fill:#424242; stroke:none;" d="M286 336L287 337L286 336z"/>
<path style="fill:#aeaeae; stroke:none;" d="M286 337L287 338L286 337z"/>
<path style="fill:#787878; stroke:none;" d="M285 338L286 339L285 338z"/>
<path style="fill:#5b5b5b; stroke:none;" d="M284 339L285 340L284 339z"/>
<path style="fill:#3a3a3a; stroke:none;" d="M281 342L282 343L281 342z"/>
<path style="fill:#7f7f7f; stroke:none;" d="M190 343L191 344L190 343z"/>
<path style="fill:#666666; stroke:none;" d="M280 343L281 344L280 343z"/>
<path style="fill:#2b2b2b; stroke:none;" d="M191 344L192 345L191 344z"/>
<path style="fill:#666666; stroke:none;" d="M278 344L279 345L278 344z"/>
<path style="fill:#cccccc; stroke:none;" d="M279 344L280 345L279 344z"/>
<path style="fill:#424242; stroke:none;" d="M331 345L331 364L331.722 363.222L331.75 362.694L331.944 361.889L331.972 360.972L332 360L332 358L332 357L332 355L332 352L332 351L332 349L331.972 348.028L331.944 347.111L331.75 346.306L331.722 345.778L331 345z"/>
<path style="fill:#8c8c8c; stroke:none;" d="M78 347L78 361L329 361L329 347L78 347z"/>
<path style="fill:#686868; stroke:none;" d="M329 347L329 362L329.722 361.222L329.75 360.694L329.944 359.889L329.972 358.972L330 357L330 356L330 354L330 352L330 351L329.972 350.028L329.944 349.111L329.75 348.306L329.722 347.778L329 347z"/>
<path style="fill:#767676; stroke:none;" d="M78 361L78.7778 361.722L79.3056 361.75L80.1111 361.944L81.0278 361.972L82 362L83 362L85 362L98 362L147 362L329 362L328.222 361.278L327.694 361.25L326.889 361.056L325.972 361.028L325 361L324 361L322 361L309 361L260 361L78 361z"/>
<path style="fill:#292929; stroke:none;" d="M76 363L76.7778 363.722L77.3056 363.75L78.1111 363.944L79.0278 363.972L81 364L83 364L86 364L108 364L188 364L187.222 363.278L186.694 363.25L185.889 363.056L184.972 363.028L183 363L181 363L178 363L156 363L76 363M219 363L219.778 363.722L220.306 363.75L221.111 363.944L222.028 363.972L224 364L226 364L229 364L251 364L331 364L330.222 363.278L329.694 363.25L328.889 363.056L327.972 363.028L326 363L324 363L321 363L299 363L219 363z"/>
<path style="fill:#090909; stroke:none;" d="M218 364L218 392L188 392L188.778 392.722L189.306 392.75L190.111 392.944L191.028 392.972L193 393L195 393L198 393L219 393L219 373L219 370L219 369L218.972 367.028L218.944 366.111L218.75 365.306L218.722 364.778L218 364z"/>
<path style="fill:#959595; stroke:none;" d="M18 392L18.7778 392.722L19.3056 392.75L20.1111 392.944L21.0278 392.972L22 393L24 393L25 393L27 393L32 393L65 393L188 393L187.222 392.278L186.694 392.25L185.889 392.056L184.972 392.028L184 392L182 392L181 392L179 392L174 392L141 392L18 392z"/>
</svg>
